<?xml version="1.0" encoding="UTF-8"?>
<svg id="Capa_1" xmlns="http://www.w3.org/2000/svg" version="1.1" viewBox="0 0 1080 1080">
  <!-- Generator: Adobe Illustrator 29.1.0, SVG Export Plug-In . SVG Version: 2.1.0 Build 142)  -->
  <defs>
    <style>
      .st0 {
        fill: #e7000b;
      }
    </style>
  </defs>
  <path class="st0" d="M282.8,94.6c13.8-2,29.9,8,33.2,21.8,5.5,23.4-14.7,34.2-27.1,49.5-104.9,131-101.1,299.9,5.6,428.2,6,7.2,19.8,17.4,21.9,26.5,6.1,27.1-20,49.9-44.2,34.9-12.5-7.7-37.8-40.5-47-53.5-96.8-136.8-96.3-320.4,3.4-455.6,10.4-14.1,37.3-49.4,54.3-51.9Z"/>
  <path class="st0" d="M789.3,94.6c15.3-2.2,25.4,8.2,34.9,18.2,131.1,137.1,136.5,360.9,17.6,507.4-6.5,8-25.9,30.6-33.5,35.4-24.2,14.9-50.3-7.9-44.2-34.9s15.9-19.3,21.9-26.5c108.5-130.6,109.5-297.6,3.7-430.1s-29.5-24.2-25.6-46.2c2.1-11.5,13.9-21.6,25.2-23.3Z"/>
  <path class="st0" d="M685.1,198.9c19.3-1.5,37.4,22.8,47.7,37,57.4,79.2,61.3,186.2,8.6,269-13.9,21.9-46.9,70.3-75.5,40.1-24.3-25.7,10-48.6,23-68.4,39.2-59.6,40.7-138,1.1-197.8-8.3-12.5-29.8-31.3-32-44.4-2.8-17.2,9.4-34.1,27.1-35.5Z"/>
  <path class="st0" d="M390.8,198.9c17-1.3,32.2,13.4,32.2,30.3s-23.1,35.1-32.6,49.5c-39.6,60.2-38.3,137.9,1.1,197.8,9.4,14.3,29.4,29,30.4,45.9,1.4,22.9-24.2,39-44.5,27.8-8.5-4.7-26.4-27.7-32.5-36.4-61.3-87.1-56.9-206.1,10.9-288.3,8.8-10.7,20-25.5,34.9-26.7Z"/>
  <path class="st0" d="M747.5,889.8l-171.7-428.1c-.3-3.4,16.1-11.5,20.1-14.7,70.6-55.9,23.3-169.7-69.2-158.5-76,9.2-102.9,110.5-42.3,158.5,4,3.2,20.4,11.3,20.1,14.7l-171.2,426.7c-12,35,36.1,56.7,54.5,24.7,5.5-9.7,26.1-72.1,30.6-73.7l241.9-.3,4.3,3.2c15.8,26.5,20.2,96.3,63.3,85,15.4-4,24.8-22.4,19.5-37.5ZM534.9,348c45.3-9.4,52.6,56.8,10.8,60.8-37.8,3.6-44.9-53.7-10.8-60.8ZM542.1,539.2l52.7,130.3h-103.5l50.8-130.3ZM441.5,792.2l23.2-61.1c51.8-.6,103.9,0,155.8-.4l24.2,61.5h-203.2Z"/>
</svg>