<?xml version="1.0" encoding="UTF-8"?>
<svg id="Capa_1" data-name="Capa 1" xmlns="http://www.w3.org/2000/svg" viewBox="0 0 855.4 922.26">
  <defs>
    <style>
      .cls-1 {
        fill: #f8041f;
      }
    </style>
  </defs>
  <path class="cls-1" d="M467.29,406.04c-.36-3.76,17.74-12.71,22.21-16.25,78.05-61.79,25.78-187.62-76.44-175.25-83.97,10.16-113.72,122.14-46.72,175.25,4.46,3.54,22.56,12.49,22.21,16.25l-189.2,471.67c-13.31,38.63,39.89,62.73,60.2,27.27,6.12-10.69,28.87-79.75,33.83-81.44l267.35-.3,4.74,3.49c17.42,29.25,22.28,106.48,69.98,93.93,16.99-4.47,27.37-24.79,21.6-41.44l-189.76-473.17ZM419.12,280.32c48.6-10.08,56.51,60.99,11.64,65.3-40.59,3.9-48.27-57.7-11.64-65.3ZM426.91,485.67l56.59,139.98h-111.15l54.57-139.98ZM318.82,757.39l24.93-65.62c55.68-.65,111.55.08,167.29-.38l25.96,66h-218.19Z"/>
  <path class="cls-1" d="M156.26,552.52c-117.92-141.87-122.07-328.53-6.17-473.32,13.62-17.01,35.99-28.94,29.92-54.76-3.58-15.23-21.4-26.35-36.66-24.11-18.77,2.76-48.53,41.75-60.04,57.37-110.18,149.44-110.73,352.33-3.72,503.56,10.19,14.4,38.19,50.64,52,59.16,26.74,16.51,55.62-8.7,48.89-38.6-2.27-10.1-17.56-21.3-24.21-29.3Z"/>
  <path class="cls-1" d="M741.86,20.45c-10.57-11.05-21.73-22.58-38.61-20.11-12.52,1.83-25.55,13.06-27.83,25.76-4.37,24.31,15.4,34.91,28.28,51.04,116.95,146.49,115.85,331.05-4.11,475.38-6.65,8-21.94,19.2-24.21,29.3-6.73,29.9,22.15,55.1,48.89,38.6,8.49-5.24,29.87-30.21,37.07-39.09,131.37-161.96,125.4-409.34-19.47-560.89Z"/>
  <path class="cls-1" d="M566.77,498.13c31.62,33.43,68.09-20.1,83.51-44.31,58.26-91.51,53.99-209.73-9.48-297.3-11.37-15.69-31.44-42.59-52.75-40.92-19.59,1.54-33.08,20.17-29.94,39.22,2.38,14.47,26.18,35.22,35.33,49.05,43.71,66.1,42.1,152.79-1.23,218.64-14.41,21.89-52.31,47.2-25.44,75.62Z"/>
  <path class="cls-1" d="M212.17,463.69c6.78,9.64,26.57,35.05,35.92,40.25,22.4,12.45,50.8-5.34,49.2-30.69-1.18-18.69-23.23-34.9-33.64-50.73-43.57-66.24-44.99-152.06-1.24-218.65,10.5-15.99,36.01-36.24,36.01-54.73,0-18.68-16.8-35.01-35.59-33.53-16.47,1.29-28.88,17.66-38.62,29.47-74.95,90.79-79.74,222.3-12.02,318.62Z"/>
</svg>