<?xml version="1.0" encoding="UTF-8"?>
<svg id="Capa_1" xmlns="http://www.w3.org/2000/svg" version="1.1" viewBox="0 0 834.8 224.1">
  <!-- Generator: Adobe Illustrator 29.1.0, SVG Export Plug-In . SVG Version: 2.1.0 Build 142)  -->
  <defs>
    <style>
      .st0 {
        fill: #606060;
      }
    </style>
  </defs>
  <path class="st0" d="M261.4,141.5v47.1h-26.5V54.1l1.8-1.8h53.1c1.5,0,9.4,1.3,11.5,1.7,38.8,7.9,42.4,63.3,8.9,80.3l-.3,1.6c8,23.8,23,44.9,44.4,58.2-27.8,39.7-61.2-28.3-69.4-51.4-.5-.5-5.1-1.1-6-1.1h-17.5ZM261.4,118.6h29.6c1,0,6.6-3.3,7.7-4.3,9.4-7.7,10.7-27.8,0-34.8s-11.4-4.3-13.8-4.3h-23.5v43.4Z"/>
  <path class="st0" d="M440,143.9h-70c2.2,30.4,37.8,32.1,57.5,15.8l1.6.4,9.6,18.8c-5.9,2-10.1,6.3-16.1,8.7-47.5,19-94-19.5-76.6-69.3,13.5-38.6,72.6-46.5,89.2-7.7,1.4,3.3,4.6,12.9,4.6,15.9v17.5ZM413.5,125.8c.3-27.8-40.9-25.9-42.2,0h42.2Z"/>
  <path class="st0" d="M540.1,189.8c-9.4.4-22-3.6-22.9-14.5l-8.4,9.1c-29.9,24.7-75.9-10.4-51.7-42s26.5-16.5,36.6-16.5h21.1c-.1-26.7-31.4-19.5-46.7-9.8-2,.2-8.9-13.1-9.5-15.5-1.3-5.2,5.2-6.7,9.5-8.7,20.5-9.4,54.7-10.9,66.9,11.9,1.6,3,5.1,12.6,5.1,15.4v70.6ZM514.8,143.9h-17.5c-1.8,0-12.4,3.8-14.3,5-9,5.7-7.1,19.2,3.1,21.9,17.1,4.5,28.4-11.4,28.7-26.9Z"/>
  <path class="st0" d="M416.6,18.9c2.6,1.5,6.5,9.2,6.6,12.2.3,7.3-16.1,16-4,22.1s10-7.8,11.7-13.1,13.5-7.5,18.8-7.2l-19.2,46.5-1.7.4c-15.8-8.7-31.5-11.2-49.3-7.9-7.8,1.4-13.9,4.9-21.4,5.5l-18.2-44.5c5.9.1,16.7.4,18.8,7.2s0,6.7,1.9,10.2c4.6,8.3,16.6,2,13.7-6.4-2.4-6.9-10.8-4.8-6.9-16.6s5-8.7,6.3-9.4c4.8-2.6,16.9,7,16.5,13.2s-8,16.6,4.6,16.6c14.5,0,2.1-14.7,6.6-22.5s9.4-7.6,12.6-7.4c1.2,0,1.9.9,2.7,1.4Z"/>
  <path class="st0" d="M586,52.2v136.3h-25.3v-120.1c0-8.8,17.2-17.5,25.3-16.3Z"/>
</svg>