<?xml version="1.0" encoding="UTF-8"?>
<svg id="Capa_1" xmlns="http://www.w3.org/2000/svg" version="1.1" viewBox="0 0 834.8 224.1">
  <!-- Generator: Adobe Illustrator 29.1.0, SVG Export Plug-In . SVG Version: 2.1.0 Build 142)  -->
  <defs>
    <style>
      .st0 {
        fill: #828282;
      }
    </style>
  </defs>
  <path class="st0" d="M153.6,143.1c-39.2,43-106.8,15.9-102.5-43.5C55.3,41.8,116.6,3,171.1,22.1c3,.6-1.6-3.1-1.7-3.2C150.7,4.1,118.3-2.2,94.9.7,17.3,10.5-25.7,97.7,16.7,164.5c8.2,13,14.8,19.3,29.5,24.3,42.1,14.2,89.7-5,107.4-45.7Z"/>
  <path class="st0" d="M179.7,30.6c-43.1-18.2-94.8.4-113.2,43.4,38.4-43.1,106.3-16.2,102.5,42.6-3.9,59.5-67.6,98.4-123.2,77.5,38.6,31.8,98.3,29.6,136.1-2.7,41.9-35.8,50.5-97,19-142.6-6.6-9.6-10.4-13.6-21.3-18.2h0Z"/>
  <path class="st0" d="M350.9,152.1h-47.2v14.3h28.8c-4,23.7-39.4,23.2-48.1,2.7-10.2-24.1,15.4-46.8,37.8-34.1,4.3,2.4,6.1,6.2,9.8,9,4.1-2.3,9.9-3.8,13.7-6.1.8-.4,1.4.1,1.1-1.6-.9-5.1-12.7-14.6-17.4-16.8-36.2-16.9-77.2,15-62.4,54.2,13.5,35.7,71.1,36.4,82.9-.3,1.1-3.5,4.5-20.4.9-21.5h0Z"/>
  <path class="st0" d="M324.1,102.9c18.5-7.1,20-35,.3-40.5,1.7-2.3,4.1-2.6,6.3-4.9,7.8-8.4,5.4-24.7-4.2-30.8-5.9-3.8-17.1-4.3-24.1-4.7-3.8-.2-29-.2-30.1.9v82.5h42.7c.9,0,7.8-2,9.1-2.5ZM290.2,37.3h18.4c8.3,0,11.8,12.2,5.4,17-1,.8-5.4,2.7-6.3,2.7h-17.5v-19.7h0ZM290.2,90.2v-19.7c6.5,1,16.9-1.3,22.9,0,6.1,1.4,9,11.2,5.4,16.1-.6.8-4.8,3.6-5.4,3.6h-22.9Z"/>
  <path class="st0" d="M686.5,142.2c-16.1-14.7-42-9.4-48.5,12.1-9.9,33.2,19,61.1,48.5,38.1v30.5h17.1v-87.8h-17.1c-.4,0,.3,6.2,0,7.2h0ZM671.6,185.2c-22.3,1.1-23.7-33.4-3.2-35.6,23.8-2.6,24.5,34.5,3.2,35.6Z"/>
  <path class="st0" d="M531.5,176.3l-17.5-41.2h-18.9l27.5,63.2c-3.2,8.8-7.6,11.6-17.1,10.2-2-.3-6-2.5-6.4-2.5-1.3.1-6.5,13.1-5.8,14.2,17.6,7.4,37,5.3,44.2-14.6l29.5-70.5h-18.9l-16.6,41.2h0Z"/>
  <path class="st0" d="M387.3,99.2c-.1,1.3-.2,6.3,1.4,6.3h15.7v-43.5c0-1.2-2.1-7.3-2.8-8.8-7.8-16.5-32.6-14.7-47.3-9.8-12,4.1-5.8,5.4-3.8,15.5,9.9-3,29.8-9.6,35.5,2.7.6,1.3,2.9,6.3,0,6.3-3.3,0-6.6-1.6-9.9-1.8-12.2-.8-30.1,2.2-32.6,16.8-4.1,24.1,29.5,30.4,43.8,16.4h0ZM387.1,78.7c1.1,1.8-.6,8.1-1.8,10.1-4.5,7.4-23,7.3-24.9-1.9-2.8-13.2,24.8-11.1,26.7-8.2h0Z"/>
  <path class="st0" d="M437,139.3c-4.3,2.4,1.3,9.5,1.5,13.6,10.9-3.9,35.9-10.6,36.9,7.6,0,1.5.1,1.4-1.4,1.4-2.9-.2-6-1.6-9-1.8-12.4-.8-30.9,1.7-33.5,16.8-4.1,24.2,29.4,30.2,43.8,16.4-.1,1.3-.2,6.3,1.4,6.3h15.7v-43.5c0-3.3-3.9-11.7-6.3-14.3-9.8-10.8-37.4-9-49.2-2.4h0ZM464.1,187.9c-19.3,2.2-21.1-16.6-3.3-17.7,2.3-.1,13.7.9,14.4,3.1,2.5,7-4.2,13.9-11.1,14.7h0Z"/>
  <path class="st0" d="M574.2,139.1c-5.6,2.8,1.3,8.7.9,13.9,10.4-3.5,32.1-10.2,36.4,4.5.5,1.5,1.5,4.7-.9,4.5-2.9-.2-6-1.6-9-1.8-12.4-.8-30.9,1.7-33.5,16.8-4.1,24.2,29.4,30.2,43.8,16.4.9,1.1.6,6.3.9,6.3h16.2v-44.4c0-2.8-4.5-11.7-6.7-13.9-10.2-10.5-36.1-8.2-48.1-2.2h0ZM600.7,187.9c-19,2.2-21.1-16.4-3.3-17.7,2.6-.2,13.6.5,14.4,3,2.5,7.2-4.2,13.9-11.1,14.7Z"/>
  <path class="st0" d="M580.9,106.4c52.3,3.8,49.5-73.2-2.4-66.1-38.9,5.3-37.6,63.2,2.4,66.1ZM581.2,55.5c8.7-1.5,18.7,3.7,19.9,12.9,1.5,10.6-2,21.2-13.9,22.7-23.8,3-26.2-32.2-6-35.6Z"/>
  <path class="st0" d="M446.2,55.2c5-.1,13.9,5,13.9,10.3v39.9h17.1v-45.3c0-4.9-5.9-13.2-9.9-16.1-12.5-8.7-25.9-2.8-36.3,5.8-1.1,0,0-9-.5-9h-17.1v64.5h17.1v-37.2c0-6.9,9.3-12.9,15.8-13h0Z"/>
  <path class="st0" d="M760.2,172.2c0,.3-1.3,4-1.6,4.6-3.8,8.4-16.4,11-23.5,5.2-1.3-1.1-4.5-6.8-4.5-8v-39h-17.1v44.4c0,5.1,5.7,14,9.9,17,12.4,8.7,26.1,3.1,36.3-5.8,1.1,0,0,9,.5,9h17.1v-64.5h-17.1v37.2h0Z"/>
  <path class="st0" d="M407,173.1c0,1.4-3.2,6.7-4.5,8-5.3,4.9-15.7,5.6-21.1.5-1.3-1.2-4-7.1-4-8.5v-38.1h-17.1v44.4c0,4.7,6,14.2,9.9,17,12.2,8.6,26.3,3.2,36.3-5.8,1.1,0,0,9,.5,9h17.1v-64.5h-17.1v38.1h0Z"/>
  <path class="st0" d="M547.2,89c-.3-1-13.6-6.6-15.1-5.7-.2.1-1.8,3.1-3.3,4.3-7.4,5.8-19.9,4.4-25.1-3.6-9.4-14.6,4.3-34.4,21.1-27.3,3,1.3,7.3,7.2,8.5,7.3.9.1,13.1-5.2,13.6-6-5.6-16.2-26.2-21.2-41.2-16-25.5,8.9-30.4,44.1-7.4,59,15.5,10.1,42.2,6.8,49-12h0Z"/>
  <path class="st0" d="M817.7,114.9v84.7h17.1v-87.8c-5.5,1.1-12.4.7-17.1,3.1Z"/>
  <rect class="st0" x="789" y="135" width="17.1" height="64.5"/>
  <path class="st0" d="M795,110.1c-12.3,2.5-8,20.2,4,18.5,12.2-1.8,10.3-21.4-4-18.5Z"/>
</svg>