<?xml version="1.0" encoding="UTF-8"?>
<svg id="Capa_1" xmlns="http://www.w3.org/2000/svg" version="1.1" viewBox="0 0 834.8 224.1">
  <!-- Generator: Adobe Illustrator 29.1.0, SVG Export Plug-In . SVG Version: 2.1.0 Build 142)  -->
  <defs>
    <style>
      .st0 {
        fill: #818282;
      }
    </style>
  </defs>
  <g>
    <path class="st0" d="M74,129.7s2.2-13.1-11.4-20.3c0,0,10.9-4.5,10.2-15.4,0,0-1.7-13.4-14.6-15.3v68.1s13.4-1.7,15.9-17.1Z"/>
    <path class="st0" d="M16.8,51.6v121.9h121.9V51.6H16.8ZM58.2,146.8h-14.4v-68.1h27s14.9,1,15.6,15.9c0,0,1.5,9.2-9.4,14.6,0,0,12.1,5.2,11.2,19.1,0,0-.2,14.9-16.4,18.6h-13.6ZM112,128.2s-.2,14.9-16.4,18.6h-16.6s16.4-1.7,18.8-17.1c0,0,2.2-13.1-11.4-20.3,0,0,10.9-4.5,10.2-15.4,0,0-1.7-13.6-14.9-15.4h12.9s14.9,1,15.6,15.9c0,0,1.5,9.2-9.4,14.6,0,0,12.1,5.2,11.2,19.1Z"/>
    <path class="st0" d="M58.2,78.6h-.2c0,0,.2,0,.2,0h0Z"/>
  </g>
  <path class="st0" d="M173.2,84.9c3.5-.7,9.9-1.3,16.1-1.3s13.2,1,17.4,3.9c3.8,2.3,6.3,6.2,6.3,11.3s-3.5,10.7-10.1,13.1v.2c6.4,1.6,12.2,6.7,12.2,15s-2.3,9.6-5.8,12.5c-4.3,3.8-11.4,5.7-22.5,5.7s-10.8-.4-13.6-.8v-59.7ZM184.2,108.8h5.7c7.6,0,12-3.6,12-8.7s-4.3-8.3-11.3-8.3-5.1.2-6.3.5v16.6ZM184.2,136.7c1.4.2,3.3.3,5.8.3,7.1,0,13.4-2.7,13.4-10.2s-6.1-9.9-13.8-9.9h-5.5v19.8Z"/>
  <path class="st0" d="M245.1,144.7l-.7-4.9h-.3c-2.7,3.4-7.3,5.8-13,5.8-8.8,0-13.8-6.4-13.8-13,0-11.1,9.8-16.6,26-16.6v-.7c0-2.9-1.2-7.6-8.9-7.6s-8.8,1.3-11.8,3.2l-2.2-7.2c3.2-2,8.9-3.9,15.8-3.9,14,0,18.1,8.9,18.1,18.4v15.8c0,4,.2,7.8.6,10.5h-10ZM243.7,123.3c-7.8-.2-15.3,1.5-15.3,8.2s2.8,6.3,6.3,6.3,7.6-2.9,8.6-6c.3-.8.4-1.7.4-2.4v-6Z"/>
  <path class="st0" d="M262.2,114c0-5,0-9.3-.4-13h9.7l.5,6.6h.3c1.9-3.4,6.7-7.6,13.9-7.6s15.6,4.9,15.6,18.8v26h-11.1v-24.7c0-6.3-2.3-11.1-8.4-11.1s-7.5,3.1-8.6,6.5c-.4,1-.4,2.3-.4,3.6v25.7h-11.2v-30.8Z"/>
  <path class="st0" d="M342.8,143.4c-2.3,1.1-6.9,2.2-12.4,2.2-13.7,0-22.6-8.7-22.6-22.3s9-23.4,24.4-23.4,8.2.9,10.7,2.1l-2,8.3c-1.8-.8-4.4-1.7-8.4-1.7-8.5,0-13.5,6.2-13.4,14.2,0,9,5.8,14.1,13.4,14.1s6.6-.8,8.7-1.7l1.5,8.2Z"/>
  <path class="st0" d="M387.3,122.4c0,16.1-11.3,23.3-22.5,23.3s-22-8.5-22-22.6,9.4-23.2,22.7-23.2,21.8,9.2,21.8,22.5ZM354.3,122.9c0,8.5,4.1,14.8,10.9,14.8s10.7-6.2,10.7-15-3.1-14.7-10.6-14.7-11,7.6-11,14.8Z"/>
  <path class="st0" d="M415.1,84.1c3.5-.7,9.9-1.3,16.1-1.3s13.2,1,17.4,3.9c3.8,2.2,6.3,6.2,6.3,11.3s-3.5,10.7-10.1,13.1v.2c6.4,1.6,12.2,6.7,12.2,15s-2.3,9.6-5.8,12.5c-4.3,3.8-11.4,5.7-22.5,5.7s-10.8-.5-13.6-.8v-59.7ZM426.1,108h5.7c7.6,0,12-3.6,12-8.7s-4.3-8.3-11.3-8.3-5.1.2-6.3.5v16.6ZM426.1,135.9c1.4.2,3.3.3,5.8.3,7.1,0,13.4-2.7,13.4-10.2s-6.1-9.9-13.8-9.9h-5.5v19.8Z"/>
  <path class="st0" d="M505.5,121.6c0,16.1-11.3,23.3-22.5,23.3s-22-8.5-22-22.6,9.4-23.2,22.7-23.2,21.8,9.2,21.8,22.5ZM472.5,122c0,8.5,4.1,14.8,10.9,14.8s10.7-6.2,10.7-15-3.1-14.7-10.6-14.7-11,7.6-11,14.8Z"/>
  <path class="st0" d="M511.6,80h11.2v63.9h-11.2v-63.9Z"/>
  <rect class="st0" x="531.6" y="100.1" width="11.2" height="43.8"/>
  <path class="st0" d="M558.6,100.1l7.1,22.2c1.3,3.9,2.2,7.4,3,11h.3c.8-3.6,1.8-7,3-11l6.9-22.2h11.7l-16.7,43.8h-10.9l-16.3-43.8h12Z"/>
  <path class="st0" d="M618.3,143.9l-.7-4.9h-.3c-2.7,3.4-7.3,5.8-13,5.8-8.8,0-13.8-6.4-13.8-13,0-11.1,9.8-16.6,26-16.6v-.7c0-2.9-1.2-7.6-8.9-7.6s-8.8,1.3-11.8,3.2l-2.2-7.2c3.2-2,8.9-3.9,15.8-3.9,14,0,18.1,8.9,18.1,18.4v15.8c0,4,.2,7.8.6,10.5h-10ZM616.9,122.5c-7.8-.2-15.3,1.5-15.3,8.2s2.8,6.3,6.3,6.3,7.7-2.9,8.6-6c.3-.8.4-1.7.4-2.4v-6Z"/>
  <path class="st0" d="M636.3,114.2c0-5.9,0-10.2-.4-14.1h9.6l.4,8.4h.4c2.2-6.2,7.3-9.4,12-9.4s1.7,0,2.6.3v10.4c-.9-.2-1.9-.4-3.2-.4-5.3,0-8.9,3.4-9.9,8.4-.2,1-.4,2.2-.4,3.4v22.7h-11.1v-29.7Z"/>
  <rect class="st0" x="665.3" y="100.1" width="11.2" height="43.8"/>
  <path class="st0" d="M709.9,143.9l-.7-4.9h-.3c-2.7,3.4-7.3,5.8-13,5.8-8.8,0-13.8-6.4-13.8-13,0-11.1,9.8-16.6,26-16.6v-.7c0-2.9-1.2-7.6-8.9-7.6s-8.8,1.3-11.8,3.2l-2.2-7.2c3.2-2,8.9-3.9,15.8-3.9,14,0,18.1,8.9,18.1,18.4v15.8c0,4,.2,7.8.6,10.5h-10ZM708.5,122.5c-7.8-.2-15.3,1.5-15.3,8.2s2.8,6.3,6.3,6.3,7.6-2.9,8.6-6c.3-.8.4-1.7.4-2.4v-6Z"/>
  <path class="st0" d="M727.9,113.1c0-5,0-9.3-.4-13h9.7l.5,6.6h.3c1.9-3.4,6.7-7.6,13.9-7.6s15.6,4.9,15.6,18.8v26h-11.1v-24.7c0-6.3-2.3-11.1-8.4-11.1s-7.5,3.1-8.6,6.5c-.4,1-.4,2.3-.4,3.6v25.7h-11.2v-30.8Z"/>
  <path class="st0" d="M818,121.6c0,16.1-11.3,23.3-22.5,23.3s-22-8.5-22-22.6,9.4-23.2,22.7-23.2,21.8,9.2,21.8,22.5ZM785,122c0,8.5,4.1,14.8,10.9,14.8s10.7-6.2,10.7-15-3.1-14.7-10.6-14.7-11,7.6-11,14.8Z"/>
  <rect class="st0" x="531.2" y="81.8" width="12" height="12"/>
  <rect class="st0" x="664.9" y="81.8" width="12" height="12"/>
</svg>