<?xml version="1.0" encoding="UTF-8"?>
<svg id="Capa_1" xmlns="http://www.w3.org/2000/svg" version="1.1" viewBox="0 0 834.8 224.1">
  <!-- Generator: Adobe Illustrator 29.1.0, SVG Export Plug-In . SVG Version: 2.1.0 Build 142)  -->
  <defs>
    <style>
      .st0 {
        fill: none;
      }

      .st1 {
        fill: #828282;
      }
    </style>
  </defs>
  <polygon class="st0" points="345.3 75.1 363.8 75.1 354.6 53.3 345.3 75.1"/>
  <path class="st0" d="M295.7,71.1h-20v16.6h18.8s8.6-1.1,9.2-9c0,0-.3-7.6-8-7.6Z"/>
  <circle class="st0" cx="572" cy="66.6" r="21.7"/>
  <path class="st0" d="M293.3,137.4h-17.6s0,20.1,0,20.1h16.4s9.5-1.8,9.5-10c0,0,.7-9.6-8.3-10Z"/>
  <path class="st0" d="M301.6,53.3s-.6-7.2-7.1-7.2h-18.8v14.3h19.4s6.8-1.5,6.5-7.2Z"/>
  <polygon class="st0" points="770.2 166 788.6 166 779.4 144.2 770.2 166"/>
  <path class="st1" d="M50.3,145c8.8,46.7,50.8,47.1,50.8,47.1h108.1V32.3H50.3v112.7ZM129.8,60.5h53.6v51.7h-24v-29.1h-29.6v-22.6Z"/>
  <path class="st1" d="M307.6,66s8.8-7.8,6.9-15.2c0,0,0-13.9-13.4-16.2h0s-39.3,0-39.3,0v65.1h36.9s18.5-2.8,17.6-18.9c0,0,0-12.5-8.8-14.8ZM275.7,46.2h18.8c6.5,0,7.1,7.2,7.1,7.2.3,5.6-6.5,7.2-6.5,7.2h-19.4v-14.3ZM294.5,87.7h-18.8v-16.6h20c7.7,0,8,7.6,8,7.6-.6,7.9-9.2,9-9.2,9Z"/>
  <rect class="st1" x="327.5" y="124.9" width="12.7" height="66.4"/>
  <path class="st1" d="M722.8,129.5v20.8h-29.8v-25.4h-12.7v66.4h13.2v-27.6h29.3v27.6h12.7v-66.4h-8.5s-4.2.2-4.2,4.6Z"/>
  <path class="st1" d="M411.8,55.2l25.2,41.3c2.1,3.5,4.4,3.2,4.4,3.2h13.4V34.6h-12.7v44.8l-24.9-41.1c-1.6-3-4.6-3.7-4.6-3.7h-15v65.1h0s14.3,0,14.3,0v-44.6Z"/>
  <path class="st1" d="M786.2,125.5h-13.9l-25.2,65.1h13.9l6.2-13.4h25.2l5.2,13.4h14.2l-25.6-65.1ZM770.2,166l9.2-21.8,9.2,21.8h-18.5Z"/>
  <path class="st1" d="M296.1,124.9h-33.2v66.4h12.9v-22.3h20.8c19.9-4.8,18.2-21.9,18.2-21.9.9-19.6-18.7-22.2-18.7-22.2ZM301.6,147.4c0,8.2-9.5,10-9.5,10h-16.4v-20.1h17.6c9,.5,8.3,10.1,8.3,10.1Z"/>
  <path class="st1" d="M388.9,179.6c-21.5-1.6-20.5-22.1-20.5-22.1,1.4-21.6,20.1-21.3,20.1-21.3,12,0,16.9,7.2,16.9,7.2l9.2-8.6c-8.3-11.7-24.9-11.1-24.9-11.1-38.2,1.5-36,34.9-36,34.9,2.8,37,36,32.6,36,32.6,19.1,0,26.5-12,26.5-12l-8.3-8.3c-6.1,9.7-18.9,8.8-18.9,8.8Z"/>
  <path class="st1" d="M578.1,171l-24.9-41.1c-1.6-3-4.6-3.7-4.6-3.7h-15v65.1h14.3v-44.6l25.2,41.3c2.1,3.5,4.4,3.2,4.4,3.2h13.4v-65.1h-12.7v44.8Z"/>
  <polygon class="st1" points="658.3 170.8 658.3 170.8 658.3 170.8 658.3 170.8"/>
  <path class="st1" d="M503.2,88.2c-21.5-1.6-20.5-22.1-20.5-22.1,1.4-21.6,20.1-21.3,20.1-21.3,12,0,16.9,7.2,16.9,7.2l9.2-8.6c-8.3-11.7-24.9-11.1-24.9-11.1-38.2,1.5-36,34.9-36,34.9,2.8,37,36,32.6,36,32.6,19.1,0,26.5-12,26.5-12l-8.3-8.3c-6.1,9.7-18.9,8.8-18.9,8.8Z"/>
  <path class="st1" d="M572,31.9c-19.1,0-34.6,15.5-34.6,34.7s15.5,34.6,34.6,34.6,34.7-15.5,34.7-34.6-15.5-34.7-34.7-34.7ZM572,88.3c-12,0-21.7-9.7-21.7-21.7s9.7-21.7,21.7-21.7,21.7,9.7,21.7,21.7-9.7,21.7-21.7,21.7Z"/>
  <rect class="st1" x="503" y="124.9" width="12.7" height="66.4"/>
  <path class="st1" d="M372.7,99.7h14.2l-25.6-65.1h-13.9l-25.2,65.1h13.9l6.2-13.4h25.3l5.2,13.4ZM345.3,75.1l9.2-21.8,9.2,21.8h-18.5Z"/>
  <path class="st1" d="M639.5,179.6c-21.5-1.6-20.5-22.1-20.5-22.1,1.4-21.6,20.1-21.3,20.1-21.3,12,0,16.9,7.2,16.9,7.2l9.2-8.6c-8.3-11.7-24.9-11.1-24.9-11.1-38.2,1.5-36,34.9-36,34.9,2.8,37,36,32.6,36,32.6,19.1,0,26.5-12,26.5-12l-8.3-8.3c-6.1,9.7-18.9,8.8-18.9,8.8Z"/>
  <path class="st1" d="M471.6,129.5v20.8h-29.8v-25.4h-12.7v66.4h13.2v-27.6h29.3v27.6h12.7v-66.4h-8.5s-4.2.2-4.2,4.6Z"/>
</svg>