<?xml version="1.0" encoding="UTF-8"?>
<svg id="Capa_1" xmlns="http://www.w3.org/2000/svg" version="1.1" viewBox="0 0 1080 1080">
  <!-- Generator: Adobe Illustrator 29.1.0, SVG Export Plug-In . SVG Version: 2.1.0 Build 142)  -->
  <defs>
    <style>
      .st0 {
        fill: #155dfc;
      }
    </style>
  </defs>
  <path class="st0" d="M576.6,1011h-5.5l-5.5-1.8c-1.3,1.6-3.8,1.1-5.5,0-.5.8-1.7,1.4-3.7,1.8h-33.1l-3.7-1.8c-1.4,1.4-4.1,1.4-5.5,0-.8,1.6-2.3,1.2-3.7,0-.5.8-1.7,1.4-3.7,1.8h-7.4c-224.9-11.3-418.5-206.7-430.3-430.3v-7.4l1.8-3.7c-.7-.6-1.4-1.8-1.8-3.7v-9.2c1.5-3.5,1.5-7.5,0-11v-11c1.5-3.5,1.5-7.5,0-11v-7.4l1.8-3.7c-.7-1.6-1.3-3.4-1.8-5.5.2-2.4-.2-5,0-7.4C92.6,249.9,309.3,58.4,561,69.4c24.4,1.1,103.3,10.8,121.3,24,24.6,18.2,9.5,55.3-19.9,53.2-13-.9-35.4-9.6-50.4-12.2C205.7,65-41.3,569.6,262.1,844.6c291,263.8,749.5,10,683.5-376.4-2.5-14.5-13.8-47-11.5-58.6,4.9-24.5,34-32.7,50.7-13.7,15.2,17.2,24.8,100,25.8,125,10.2,252-183.2,469.5-434,490.1Z"/>
  <path class="st0" d="M519.6,1009.2c1.6.5,1.6,1.1,0,1.8h-5.5c-1.6-.5-1.6-1.1,0-1.8,1.8,0,3.7-.1,5.5,0Z"/>
  <path class="st0" d="M565.5,1009.2c1.6.5,1.6,1.1,0,1.8h-5.5c-1.6-.5-1.6-1.1,0-1.8,1.8-.2,3.7,0,5.5,0Z"/>
  <path class="st0" d="M571.1,1011h-5.5v-1.8c2,0,4.6-.5,5.5,1.8Z"/>
  <path class="st0" d="M510.4,1009.2c1.6.5,1.6,1.1,0,1.8h-3.7c.5-1.8,2.1-1.7,3.7-1.8Z"/>
  <path class="st0" d="M514.1,1009.2v1.8h-3.7v-1.8c1.2-.1,2.5,0,3.7,0Z"/>
  <path class="st0" d="M523.3,1011h-3.7v-1.8c1.6.1,3.2,0,3.7,1.8Z"/>
  <path class="st0" d="M560,1009.2v1.8h-3.7c.5-1.8,2.1-1.7,3.7-1.8Z"/>
  <path class="st0" d="M506.3,217.2c30-2.5,96.8-1.3,123.6,11.4,22.6,10.7,22.8,46.4-.9,54.4-16,5.4-44.4-6.1-62.6-7.4-294.4-21.8-403,364.5-152.9,498.6,190.2,101.9,406.8-47.9,391-260.5-1.6-21.8-23.4-72.6,10.6-79.6,24.3-5,34.5,7.7,40.1,29,78,298-281.3,525.6-522.2,327.3C112.5,608.8,224.1,240.3,506.3,217.2Z"/>
  <path class="st0" d="M522.9,364.3c25-2.2,68.2-1.8,62.5,34.9-5,32-46.8,21.2-69.8,25.8-107.7,21.5-127.5,169.1-29.7,219.9,67.1,34.8,152.3-3.5,168.6-77.3,4.7-21.3-1.5-54.5,29.7-56.8,47.9-3.4,30.7,66.1,20.7,92.5-49.4,130.2-224,153.7-307.4,41.6-81.4-109.4-9.5-268.6,125.4-280.6Z"/>
  <path class="st0" d="M988.5,212l-107.6-8.2-3.8-1.7-9.4-110.1c-4.5-15.8-17.7-24.6-34.2-22-4.3.7-9.2,3-12.4,5.9l-111.8,112.5c-13.2,51.9-11.4,107.5-19.6,160.6l-174.6,174.8c-17.3,27.9,15,59.4,42.2,40.4l173.8-173.8c46-7.5,94.8-7,140.6-13.8,8.6-1.3,17.7-2.5,24-9.1l110.9-111.6c10-18.3.8-37.4-18.1-43.9ZM862,317.3l-110.8,11.5,11.5-110.8,51.9-52.9c3.5,20.5,2.2,42.9,4.8,63.2,1.7,12.9,5.9,23.8,18.7,29.1,25,5.1,51.2,5.2,76.7,7l-52.9,52.8Z"/>
</svg>