<?xml version="1.0" encoding="UTF-8"?>
<svg id="Capa_1" xmlns="http://www.w3.org/2000/svg" version="1.1" viewBox="0 0 1080 1080">
  <!-- Generator: Adobe Illustrator 29.1.0, SVG Export Plug-In . SVG Version: 2.1.0 Build 142)  -->
  <path d="M577.8,836H226.5c-11.8-.3-31.7-18.8-31.7-30v-389.1h690.4v213.4c0,8.3,22.6,15,24.7-3v-326.7c0-24.1-29.2-56.3-53.2-56.3h-70.1v-31.6c0-3.9-4.8-13.9-6.9-17.7-18.1-33.2-67.8-32.4-85.6.8-1.4,2.5-6.1,13.5-6.1,15.4v33.1h-98.6v-31.6c0-3.9-4.8-13.9-6.9-17.7-18.1-33.2-67.8-32.4-85.6.8-1.4,2.5-6.1,13.5-6.1,15.4v33.1h-98.6v-31.6c0-3.9-4.8-13.9-6.9-17.7-18.1-33.2-67.8-32.4-85.6.8-1.4,2.5-6.1,13.5-6.1,15.4v33.1h-70.1c-24,0-53.2,32.1-53.1,56.3v502.4c2.4,31.3,26.6,55.1,57.7,57.8h349.9c15.6-1.6,15.6-23.2,0-24.7ZM713,214.6c1.5-9,10.1-17.8,19.3-19.3,14.9-2.4,28.1,6.8,29.7,22,1.7,15.9,2.1,66.3-.4,81.3-4.5,26.5-45.8,26.5-48.9-2.7-1.7-15.9-2.1-66.3.4-81.3ZM515.7,214.6c1.5-9,10.1-17.8,19.3-19.3,14.9-2.4,28.1,6.8,29.7,22,1.7,15.9,2.1,66.3-.4,81.3-4.5,26.5-45.8,26.5-48.9-2.7-1.7-15.9-2.1-66.3.4-81.3ZM318.5,214.6c1.5-9,10.1-17.8,19.3-19.3,14.9-2.4,28.1,6.8,29.7,22,1.7,15.9,2.1,66.3-.4,81.3-4.5,26.5-45.8,26.5-48.9-2.7-1.7-15.9-2.1-66.3.4-81.3ZM194.8,298.9c0-10,20-30.1,30.1-30.1h68.6v31.6c0,22.9,28.5,42.8,50.1,42.5,20.8-.2,48.5-20.5,48.5-42.5v-31.6h98.6v31.6c0,22.9,28.5,42.8,50.1,42.5,20.8-.2,48.5-20.5,48.5-42.5v-31.6h98.6v31.6c0,22.1,27.6,42.2,48.5,42.5,21.5.3,50.1-19.7,50.1-42.5v-31.6h68.6c10,0,30.1,20,30.1,30.1v93.2H194.8v-93.2Z"/>
  <path d="M735.4,589.9c-117,9.9-183.2,140-123.8,241.5,61.7,105.5,218.2,104.1,277.5-3.1,62.5-113.2-25.3-249.3-153.7-238.4ZM870.1,812.4c-45.2,88-169.9,98.3-229,18.8-63.1-84.9-9.3-207.4,95.9-216.7,106.7-9.5,182.3,102.2,133.1,197.9Z"/>
  <path d="M367.4,500.8c-1.3-11.3-9.7-20.7-20.9-22.2-10.9-1.5-47.4-1.6-58.1.2-9,1.5-17.7,10.1-19.3,19.3-1.5,9-1.4,34.9-.4,44.3,1.4,12.1,10.3,21.1,22.3,22.3,12.3,1.3,41.7,1.4,53.9,0,12.1-1.4,21.1-10.3,22.3-22.3,1-9.7,1.1-31.9,0-41.6ZM342.8,540.1h-49.3v-37h49.3v37Z"/>
  <path d="M515.4,500.8c-1.3-11.3-9.7-20.7-20.9-22.2-10.9-1.5-47.4-1.6-58.1.2-9,1.5-17.7,10.1-19.3,19.3-1.5,9-1.4,34.9-.4,44.3,1.4,12.1,10.3,21.1,22.3,22.3,12.3,1.3,41.7,1.4,53.9,0,12.1-1.4,21.1-10.3,22.3-22.3,1-9.7,1.1-31.9,0-41.6ZM490.7,540.1h-49.3v-37h49.3v37Z"/>
  <path d="M663.3,542.4c1-9.7,1.1-31.9,0-41.6-1.3-11.3-9.7-20.7-20.9-22.2-10.9-1.5-47.4-1.6-58.1.2-9,1.5-17.7,10.1-19.3,19.3-1.5,9-1.4,34.9-.4,44.3,1.4,12.1,10.3,21.1,22.3,22.3,12.3,1.3,41.7,1.4,53.9,0,12.1-1.4,21.1-10.3,22.3-22.3ZM638.6,540.1h-49.3v-37h49.3v37Z"/>
  <path d="M790.3,478.6c-10.9-1.5-47.4-1.6-58.1.2-9,1.5-17.7,10.1-19.3,19.3-1.5,9-1.4,34.9-.4,44.3,1.4,12.1,10.3,21.1,22.3,22.3,12.3,1.3,41.7,1.4,53.9,0,12.1-1.4,21.1-10.3,22.3-22.3,1-9.7,1.1-31.9,0-41.6-1.3-11.3-9.7-20.7-20.9-22.2ZM786.6,540.1h-49.3v-37h49.3v37Z"/>
  <path d="M367.4,611.8c-1.3-11.3-9.7-20.7-20.9-22.2-10.9-1.5-47.4-1.6-58.1.2-9,1.5-17.7,10.1-19.3,19.3-1.5,9-1.4,34.9-.4,44.3,1.4,12.1,10.3,21.1,22.3,22.3,12.3,1.3,41.7,1.4,53.9,0,12.1-1.4,21.1-10.3,22.3-22.3,1-9.7,1.1-31.9,0-41.6ZM342.8,651.1h-49.3v-37h49.3v37Z"/>
  <path d="M515.4,611.8c-1.3-11.3-9.7-20.7-20.9-22.2-10.9-1.5-47.4-1.6-58.1.2-9,1.5-17.7,10.1-19.3,19.3-1.5,9-1.4,34.9-.4,44.3,1.4,12.1,10.3,21.1,22.3,22.3,12.3,1.3,41.7,1.4,53.9,0,12.1-1.4,21.1-10.3,22.3-22.3,1-9.7,1.1-31.9,0-41.6ZM490.7,651.1h-49.3v-37h49.3v37Z"/>
  <path d="M346.5,700.5c-10.9-1.5-47.4-1.6-58.1.2-9,1.5-17.7,10.1-19.3,19.3-1.5,9-1.4,34.9-.4,44.3,1.4,12.1,10.3,21.1,22.3,22.3,12.3,1.3,41.7,1.4,53.9,0,12.1-1.4,21.1-10.3,22.3-22.3,1-9.7,1.1-31.9,0-41.6-1.3-11.3-9.7-20.7-20.9-22.2ZM342.8,762h-49.3v-37h49.3v37Z"/>
  <path d="M494.4,700.5c-10.9-1.5-47.4-1.6-58.1.2-9,1.5-17.7,10.1-19.3,19.3-1.5,9-1.4,34.9-.4,44.3,1.4,12.1,10.3,21.1,22.3,22.3,12.3,1.3,41.7,1.4,53.9,0,12.1-1.4,21.1-10.3,22.3-22.3,1-9.7,1.1-31.9,0-41.6-1.3-11.3-9.7-20.7-20.9-22.2ZM490.7,762h-49.3v-37h49.3v37Z"/>
  <path d="M642.5,614.1c8,0,13.5-20,.9-24-6.1-1.9-48.2-1.6-56.3-.7-11.2,1.3-20.7,9.6-22.2,20.9-1.2,9.1-1.3,36.8.2,45.7,3.8,22.6,39.4,27.5,36.6,5.1-1.4-10.8-12.3-9.3-12.3-10.2v-37h53.2Z"/>
  <path d="M827.8,694.5c-2.6.3-5.4,1.8-7.4,3.5l-94.9,94.7-2.9-1.3-43.5-42.9c-10-6.1-22.6,5.5-17.5,15.9l54.8,56.1c3.6,3.3,8.6,4,13.2,2.4l108.5-107.3c8.5-8.4.8-22.7-10.3-21.2Z"/>
</svg>