<?xml version="1.0" encoding="UTF-8"?>
<svg id="Capa_1" xmlns="http://www.w3.org/2000/svg" version="1.1" viewBox="0 0 834.8 224.1">
  <!-- Generator: Adobe Illustrator 29.1.0, SVG Export Plug-In . SVG Version: 2.1.0 Build 142)  -->
  <defs>
    <style>
      .st0 {
        fill-rule: evenodd;
      }

      .st0, .st1 {
        fill: #828282;
      }
    </style>
  </defs>
  <path class="st0" d="M118.3,190.5c.8-11.4,6.2-20.8,11.3-29,3.1-5,14.9-21.2,19.7-25.7l7.2-8c16-17.7,39.5-38.4,56.2-54.8.7-.8,1.5-2,2.2-3,3.5-5.1,6.1-11.7,6.5-18.3,1.2-20.5-14-38.4-28.3-51.7-2.3,6.2-5.4,9.9-8.9,14.2-5.9,7-11.4,12.8-17.7,19.5-3.4,3.4-6.5,6.7-10.1,9.9l-7.7,7.4c-11.3,9.9-23.2,20.3-34.4,30.4-16,15.3-24.2,33.2-23.5,56.5.3,11.3,4.7,22.1,9.4,30.5,3.5,6.3,12.9,19.1,18,22h0Z"/>
  <path class="st0" d="M625,153.7h-38c.2-2.1,1.1-5.4,2-7,3.4-6.8,9.1-10.5,17-10.5,10.2,0,17.7,6.6,19,17.6h0ZM645.6,166.7c1.9-11.8-.8-23.8-6.5-32-7.2-10.3-20-15.8-33-15.9-17.1-.1-34.3,9.4-38.8,30.3-2.4,11.2-1,24,4.1,33.3,12.1,22,42.5,24.6,60.1,10.6l5-4.6c2.5-3.3,5.4-7.5,6.9-12.7h-21.9c-.7.3-2.5,4.7-8.1,7.2-3.7,1.6-8.9,1.9-12.9.9-7.3-1.8-13.8-9.7-13.3-16.8h58.4Z"/>
  <path class="st0" d="M455.4,136.2c8.1-.9,15,3.4,18.9,8.9,5.5,7.8,5.3,23.5-.5,30.7-11.4,14-29.2,9.3-34.8-4-1.2-2.7-1.7-6.1-1.9-9.2-.4-6.6.9-13.7,4.3-18.2,3.5-4.6,7.7-7.5,14.1-8.2h0ZM498.6,166c.4-3.5.4-7,0-10.5-2.2-23.3-20.3-37.4-43.3-36.6-23.4.9-39,17.8-39.2,40.9,0,7.4,1.5,14.8,4.6,20.6,6.3,11.9,17.4,18.9,31.1,20.6,22.8,2.9,44.2-11.8,46.7-35.1h0Z"/>
  <path class="st0" d="M276.3,141c-.7-2-.4-22.8-.2-26.5h38.1c0,0-.2-15.6-.2-15.6h-58.3s0,101.3,0,101.3c7.1-.5,51.1-.4,58.5,0l-.2-15.6h-38c0,0,.2-28.1.2-28.1l33.5.2v-15.8s-33.4,0-33.4,0h0Z"/>
  <path class="st0" d="M711.7,173.9c-.9,2-2,4-3.2,5.3-4.9,5.2-13.6,6.3-19.5,3.7-16.2-7.1-15.7-39.1,0-45.6,4.1-1.7,10.3-1.7,14.4.1,5.7,2.5,6.4,6.1,8.3,8.6h21.9c-1.2-4.8-3.4-9.3-5.8-12.7-7.4-10.6-21-15.1-33.6-14.7-18.8.7-38,12.9-37.8,41.8,0,5.6.7,10.8,2.5,15.9,2.9,8.2,8.9,16.1,16.5,20.1,13.8,7.2,30.9,6.7,43.1-1.2,1-.6,1.9-1.4,2.8-2,5.1-3.7,11.7-13.3,12.1-19.2h-21.8Z"/>
  <path class="st0" d="M384.4,174c-2,4.3-4.2,7-8.4,8.8-4.3,1.9-10.2,1.7-14.5,0-8.6-3.3-11.7-14.2-11.7-22.8,0-5,.9-10.1,3-14.3,2.1-4.1,4.4-6.6,8.8-8.4,6.2-2.6,15.6-1.3,19.6,3.5.9,1.1,2.6,3.3,3,5.2h22.2c-5-21.4-25.8-29.8-45.1-26.6-26.7,4.4-37.8,31.7-29.6,56.8.8,2.4,1.7,4.4,2.9,6.4,1.7,3,5.9,8.3,8.2,10l5.3,3.7c12.2,7.4,31.6,6.4,43.3-1.2,2.2-1.4,6.3-4.9,7.4-6.4,2.7-3.7,6.9-9.8,7.5-14.7h-21.9Z"/>
  <path class="st0" d="M196.3,190.8c-2.1.5-7.1,3.5-9.8,4.7-3.4,1.4-7,2.5-10.7,3.5v.4s0,.1,0,.2c-.3.5.1,0-.5.5-.2.2-.9.7-1.2.9-13.2,10.3-32.1,13.8-48.7,11.7-14.8-1.9-23.7-6.9-33.7-15.6l-3.9-4.3c-14.2-19.3-11.2-38.3-11.2-62.5,0-10.9,0-21.8,0-32.7,0-5.5,0-11,0-16.5,0-4.9-.4-11.4,0-16.2h11.5s0-9.9,0-9.9h-21.5c-.6,4.1-.1,76.4-.2,82.6,0,21.5-1.3,42,12.3,60,2.9,3.8,6.2,7.6,10,10.4,7.2,5.2,9.7,7.4,19.9,11.1,21.8,7.9,48.4,4.7,67.5-7.2,5.3-3.3,12.8-9.7,16.3-14.8,1.4-2,2.6-3.7,4-6h0Z"/>
  <path class="st0" d="M517.3,120h-.9s-7.8,0-7.8,0v16.7h8.9c0,.3,0,.6.1,1v25.8c-.2,15.1-2.1,30.2,14.4,35.2,5.1,1.5,18.7,1.9,24,1.4v-16.9c-6.1-1.1-17.7,2.9-18-6.2v-40.1c.3,0,.6,0,.9-.1h15.1c.7,0,1.3,0,1.9.1h0c0-.1,0-.1,0-.1v-16.7h-17.9v-19.6s0,0,0,0v-.2h-20.4v18.2c0,.6-.1,1.1-.3,1.6h0Z"/>
  <path class="st0" d="M203.3,171.5c-1.2,2.1-10.5,10.1-14,11.1-1.9,2-8.8,4.4-12.3,5.5-9.4,3-21.4,3.5-31.2,2.2-8-1.1-10.5-2.9-14-3.5-1.2,2.1-1.3,7.3-1.1,10,3.2,2.3,16.8,4.1,21.5,4.3,12.6.4,12.4-.3,23.6-2,3.7-.9,7.3-2.1,10.7-3.5,2.8-1.2,7.8-4.1,9.8-4.7,1.7-1.7,3-2.2,5.3-4,.8-.6,1.9-1.3,2.6-1.9,3.8-2.9,6.9-6.6,10-10.4.3-.4.6-.7.9-1.1,4.6-6.6,8.7-16,10.2-26,1.9-12.5,1.1-56.1,1.1-71.6l-10,11.5c-.6,7.1,0,17.1,0,24.5,0,19.5,2.3,40.2-10.1,56.5-.7.9-1.9,2.5-2.9,3.1h0Z"/>
  <path class="st0" d="M88,54.8v9.9c0,0,0,29.4,0,29.4,1.1-.6.5-.1,1.4-1.5l2.9-4.3c1.4-2.1,2.6-3.8,4.1-5.6,1.6-2,1.7-1.9,1.8-3.5.2-3.9-.2-9.8,0-14.4v-10.1s0-11.9,0-11.9h30.8c14.6,0,8.9.4,17.1-6.5,3.6-3,1.9-1.8,3.7-3.6h-61.7c0,.1,0,22.1,0,22.1h0Z"/>
  <path class="st0" d="M621.3,62.9c-1.1,6.3-6.5,11.3-13.9,9.9-10.9-2-11.5-17.5-4.7-22.1,10.3-7,20.2,2.4,18.5,12.2h0ZM621.4,47.7c-1.2-.5-7.2-10.1-20.7-4.9-7.1,2.8-10.7,10.2-10.7,17.7,0,14.5,11.9,21.7,22.8,18.8,2.4-.6,5.3-2.3,6.9-3.9.8-.8.9-1.3,1.9-1.8l-.2,5.9h8.2s0-52.7,0-52.7h-8s-.2,20.8-.2,20.8h0Z"/>
  <path class="st0" d="M725.3,63.3c-2.8,15.6-26.3,11.4-22.7-5.4,1.2-5.8,6.7-11.2,14.1-9.2,5.7,1.5,9.9,7.2,8.6,14.6h0ZM725.4,47.6c-1.2-.5-.6-.9-3.5-3.2-1.4-1.1-2.8-1.8-4.8-2.4-7.1-2.2-16.3.7-20,7.2-1.8,3-3.1,7-3.1,11.2,0,18.5,18.5,23.4,27.7,16.5,2.3-1.7,3.1-3,3.8-3.3l-.2,5.9h8.2s0-52.6,0-52.6h-7.9s-.2,20.8-.2,20.8h0Z"/>
  <path class="st0" d="M256.3,30c-.8,2.6-.3,31.6.5,35,3.8,17.1,26.4,17.6,35,10.8l3.5-3.4c.4-.4.5-.7.8-1.2,1.2-1.8,2.1-3.9,2.7-6.3.7-3,1-32.2.4-34.9h-7.9c-.6,2.6-.2,10.8-.2,14,0,12.2,2.4,28.7-13.5,28.4-9.4-.1-12.9-6.4-13-15,0-5.5.8-23.5-.2-27.5h-8.1Z"/>
  <path class="st0" d="M446.7,57.8c.9-5.6,4.8-9.6,10.7-9.8,6.2-.3,10.6,3.9,10.8,9.9h-21.5ZM475.5,63.8c0-5.2-.3-10.9-2.9-15-2.5-3.9-5.7-6-10.4-6.9-17.8-3.5-27.8,12.8-22.3,26.5,3.8,9.5,12.6,12.8,22.6,11,4-.7,8.8-3.2,10.9-6-.8-.9-3.4-4-4.3-4.4-2.8,2.3-7.8,5-13.4,3.9-4.7-.9-8.7-5.5-8.9-9.2h28.7Z"/>
  <path class="st0" d="M671.5,62.9c.2,5.4-1,7.6-4.9,9.3-12.1,5.4-17.4-7.1-9.1-9,2.9-.7,10.7-.4,14-.3h0ZM648.2,46.4c1,1.6,2.6,4.1,3.1,5.5,1-.3.6-.2,1.5-.8,7.6-4.9,19.4-4.6,18.7,5.6-7.4.4-19.6-2-24.2,5.9-3.8,6.6-.2,15.9,9.4,17.1,10.3,1.3,12.4-3.5,15-4.3v4.1c-.1,0,7.8-.2,7.8-.2,0-6.1,0-12.3,0-18.5,0-5.4.6-11-3.1-15.3-2.7-3.1-9.7-4.5-14.6-4-3,.3-4.9.7-7.6,1.7l-5.3,2.6c0,0-.2.8-.4.4,0,0-.1.1-.2.2h0Z"/>
  <path class="st0" d="M189.3,182.6c3.5-1,12.8-9,14-11.1-.1-1.6.9-5.8,1-8,.2-3.1.3-6.1.3-9.2v-56.4c-1.7.8-5.4,4.8-6.9,6.2-3.7,3.7-3.1,2.2-3.2,9.2,0,8.3,0,16.5,0,24.8,0,18,1.2,28.7-5.3,44.5h0Z"/>
  <path class="st0" d="M326.1,48.3v-6.4s-8.1-.1-8.1-.1v37.6s8,.1,8,.1c0-8.3-1.7-22.4,3.2-27,1.8-1.7,3.4-3,6.7-3.3,6.8-.6,10,3.6,10.1,10,.1,6.4-.4,13.9.1,20.1h7.9c.3-5.7,0-11.9,0-17.7,0-6,.7-10.8-2.9-15.2-5.3-6.6-16.8-6.4-22.5-.7-.7.7-1.5,2-2.5,2.6h0Z"/>
  <path class="st0" d="M524.2,68.8l-2.9,5.7c2.9,2.1,5.1,3.5,8.9,4.4,6.8,1.7,15.4,1,19.5-5.1,1.9-2.8,1.9-7.8,0-10.6-1.9-2.7-3.8-4-7.7-5.4-3.2-1.2-7.3-1.8-9.7-3.7-3.8-3,.2-6.5,4.7-6.3,4.1.2,7.3,1.9,10.3,3.3.9-1.1,2.7-4.9,3-6.4-2.7-.7-4-2.4-9.9-3.2-3.9-.6-8.1-.2-11.4,1.5-1.3.7-2.9,1.7-3.7,2.9-.7,1-1.7,2.9-1.9,4.6-2,15.8,21.3,11,19.7,19.4-.1.5-.2.6-.4.9,0,0-.8.9-.8.9-3.2,3.2-11.6.8-15.6-1.7-1-.6-1.1-.9-2.1-1.4h0Z"/>
  <path class="st0" d="M407.9,79.4l8.2.2c.6-.8,14.1-35.3,14.7-37.7l-8.2-.2c-.8,3.2-9.3,28-10.3,29-1.7-2.2-8.6-25.7-10.7-28.9h-8.3c0,0,14.5,37.6,14.5,37.6h0Z"/>
  <path class="st0" d="M499.3,48.6c-.5-1.9-.2-4.7-.2-6.7h-8.1c0-.1,0,37.4,0,37.4h10.1c.3-5.9.3-14.5-.1-20.5-.6-9.1,7.6-8.9,11.2-9.7v-7.6c-9.3-.2-12.2,6.6-12.9,7.2h0Z"/>
  <path class="st0" d="M372.3,79.5h7.6s0,0,0,0h.2v-1.9c.1-2.1,0-5.1,0-8v-27.6h-8.1s0,0,0,0h-.3v37.6h.6ZM376,26.3c2.7,0,4.8,2.2,4.8,4.8s-2.2,4.8-4.8,4.8-4.8-2.2-4.8-4.8,2.2-4.8,4.8-4.8h0Z"/>
  <path class="st0" d="M98.1,64.7c3.8-.3,15.7.8,17.6-.9l6.2-5.5c1.7-1.6,2.9-2.3,3.6-3.6-4,.1-24.9.4-27.4,0v10.1h0Z"/>
  <path class="st1" d="M763,27.5c2.2,0,4.3.6,6.4,1.7,2,1.1,3.6,2.7,4.8,4.8,1.2,2.1,1.7,4.2,1.7,6.5s-.6,4.4-1.7,6.4c-1.1,2-2.7,3.6-4.8,4.8-2,1.1-4.2,1.7-6.4,1.7s-4.4-.6-6.4-1.7c-2-1.1-3.6-2.7-4.8-4.8-1.1-2-1.7-4.2-1.7-6.4s.6-4.4,1.7-6.5c1.2-2.1,2.8-3.6,4.8-4.8,2-1.1,4.1-1.7,6.4-1.7h0ZM763,30.1c-1.8,0-3.5.4-5.1,1.3-1.6.9-2.9,2.2-3.8,3.8-.9,1.7-1.4,3.4-1.4,5.2s.5,3.5,1.4,5.2c.9,1.6,2.2,2.9,3.8,3.8,1.6.9,3.4,1.4,5.2,1.4s3.5-.5,5.2-1.4c1.6-.9,2.9-2.2,3.8-3.8.9-1.6,1.4-3.4,1.4-5.2s-.5-3.6-1.4-5.2c-.9-1.7-2.2-2.9-3.8-3.8-1.6-.9-3.3-1.3-5.1-1.3h0ZM757.1,47.3v-13.6h2.8c2.6,0,4.1,0,4.4,0,.9,0,1.6.3,2.1.5.5.3.9.7,1.3,1.3.3.6.5,1.2.5,2s-.3,1.8-1,2.5c-.6.7-1.5,1.1-2.7,1.3.4.2.7.3,1,.5.2.2.5.5.9,1,.1.1.4.7,1,1.7l1.6,2.8h-3.4l-1.1-2.2c-.8-1.5-1.4-2.4-1.9-2.8-.5-.4-1.1-.6-1.9-.6h-.7v5.6h-2.8ZM759.9,39.5h1.1c1.6,0,2.6,0,3-.2.4-.1.7-.3.9-.6.2-.3.3-.6.3-1s-.1-.7-.3-1c-.2-.3-.5-.5-.9-.6-.4-.1-1.4-.2-3-.2h-1.1v3.7h0Z"/>
  <path class="st0" d="M566.7,79.5h7.6s0,0,0,0h.2v-1.9c.1-2.1,0-5.1,0-8v-27.6h-8.1s0,0,0,0h-.3v37.6h.6ZM570.3,26.3c2.7,0,4.8,2.2,4.8,4.8s-2.2,4.8-4.8,4.8-4.8-2.2-4.8-4.8,2.2-4.8,4.8-4.8h0Z"/>
</svg>