<?xml version="1.0" encoding="UTF-8"?>
<svg id="Capa_1" xmlns="http://www.w3.org/2000/svg" version="1.1" viewBox="0 0 809.75 204.63">
  <!-- Generator: Adobe Illustrator 29.1.0, SVG Export Plug-In . SVG Version: 2.1.0 Build 142)  -->
  <path d="M718.48,108.34l-62.5,38c-5.74,3.49-13.11-.54-13.26-7.26l-1.66-73.13c-.15-6.72,7.03-11.08,12.92-7.86l64.16,35.13c5.89,3.23,6.08,11.63.34,15.12Z"/>
  <rect x="571.81" y="89.21" width="62.34" height="26.27" rx="10.48" ry="10.48"/>
  <rect x="502.56" y="89.21" width="62.34" height="26.27" rx="10.48" ry="10.48"/>
  <rect x="433.31" y="89.21" width="62.34" height="26.27" rx="10.48" ry="10.48"/>
  <rect x="364.06" y="89.21" width="62.34" height="26.27" rx="10.48" ry="10.48"/>
  <rect x="294.82" y="89.21" width="62.34" height="26.27" rx="10.48" ry="10.48"/>
  <rect x="225.57" y="89.21" width="62.34" height="26.27" rx="10.48" ry="10.48"/>
  <rect x="156.32" y="89.21" width="62.34" height="26.27" rx="10.48" ry="10.48"/>
  <rect x="87.07" y="89.21" width="62.34" height="26.27" rx="10.48" ry="10.48"/>
</svg>