<?xml version="1.0" encoding="UTF-8"?>
<svg id="Capa_1" xmlns="http://www.w3.org/2000/svg" version="1.1" viewBox="0 0 834.8 224.1">
  <!-- Generator: Adobe Illustrator 29.1.0, SVG Export Plug-In . SVG Version: 2.1.0 Build 142)  -->
  <defs>
    <style>
      .st0 {
        fill: #818282;
        fill-rule: evenodd;
      }
    </style>
  </defs>
  <path class="st0" d="M191,115.8h0v68.5c0,3,2.4,5.2,5.3,5.3h30.1c2.2,0,5.3-3,5.3-5.3v-14.5c0-3.3-1.3-6.6-5.3-6.6h-12.7c-2.6,0-4.8-2.2-4.8-4.8v-14.2c0-2.6,2.2-4.8,4.8-4.8h41.5c2.6,0,4.8,2.2,4.8,4.8v60.8c0,3.7-3,6.8-6.8,6.8h-96.1c-2.9,0-5.3-2.4-5.3-5.3v-113.7c0-2.5,2-4.5,4.5-4.5h99.2c2.5,0,4.5,2,4.5,4.5v13.4c0,2.5-2,4.5-4.5,4.5h-59.2c-2.9,0-5.2,2.3-5.3,5.2h0ZM658.6,28.5H152.1v11h481.6c16.5,0,30,13.5,30,30v141.9h24.9V58.5c0-16.5-13.5-30-30-30h0ZM687.9,11H152.1v11h510.9c16.5,0,30,13.5,30,30v159.5h24.9V41c0-16.5-13.5-30-30-30h0ZM636.7,176.6c3.1,0,6.1.8,9,2.4,2.9,1.6,5.2,3.8,6.8,6.7,1.6,2.9,2.5,6,2.5,9.2s-.8,6.2-2.4,9.1c-1.6,2.9-3.9,5.2-6.8,6.8s-5.9,2.4-9.1,2.4-6.2-.8-9.1-2.4c-2.9-1.6-5.1-3.9-6.8-6.8-1.6-2.9-2.4-5.9-2.4-9.1s.8-6.2,2.5-9.2c1.6-2.9,3.9-5.2,6.8-6.7,2.9-1.6,5.9-2.4,9-2.4h0ZM636.7,178.9c-2.7,0-5.3.7-7.8,2.1-2.5,1.4-4.5,3.3-6,5.9-1.4,2.6-2.1,5.2-2.1,8s.7,5.4,2.1,7.9c1.4,2.5,3.4,4.5,5.9,5.9,2.5,1.4,5.2,2.1,7.9,2.1s5.4-.7,7.9-2.1,4.5-3.4,5.9-5.9c1.4-2.5,2.1-5.2,2.1-7.9s-.7-5.4-2.1-8-3.4-4.5-6-5.9c-2.5-1.4-5.2-2.1-7.9-2.1h0ZM627,184.2h9.3c3.1,0,5.3.4,6.5,1.1,1.7,1.1,2.6,2.6,2.6,4.5s-.4,2.3-1.1,3.3c-.8.9-1.9,1.6-3.5,2.1l3.5,6.4c.5.9,1,1.6,1.6,2.1.3.2.6.4,1.1.5v.9h-6.2l-5.3-9.5h-1.2v5.1c0,1.5.2,2.4.6,2.8.4.4,1.2.6,2.5.7v.9h-10.9v-.9c1.1,0,1.7-.2,2.1-.5.4-.5.6-1.5.6-3v-12.2c0-1.4-.1-2.3-.4-2.7-.3-.4-.9-.6-1.8-.7v-.9h0ZM634.3,194.3c.6,0,1.1.1,1.5.1,1.1,0,2.1-.4,2.9-1.3.8-.8,1.2-2,1.2-3.4s-.4-2.5-1.1-3.3c-.7-.7-1.9-1.1-3.4-1.1h-1v8.9h0ZM581.7,123.1h63.1c1.8,0,3.2,1.4,3.2,3.2v9.9c0,1.8-1.4,3.2-3.2,3.2h-33.9c-2.2,0-3.9,1.8-3.9,3.9v64.9c0,2-1.6,3.6-3.6,3.6h-21.7c-2,0-3.6-1.6-3.6-3.6v-81.6c0-2,1.6-3.6,3.6-3.6h0ZM449.7,99.9h39.9c1.4,0,2.5,1.1,2.5,2.5v10.9c0,1.4-1.1,2.5-2.5,2.5h-11.4c-1.2,0-2.1,1-2.1,2.1v3c0,1.2,1,2.1,2.1,2.1h2.4c1.7,0,3.2,1.3,3.2,3v10.2c0,1.7-1.4,3-3,3h-1.8c-1.6,0-2.8,1.3-2.8,2.8v65.3c0,2.4-1.9,4.3-4.3,4.3h-20.3c-2.4,0-4.3-1.9-4.3-4.3v-65.3c0-1.6-1.3-2.8-2.8-2.8h-2.5c-1.7,0-3-1.4-3-3v-10.2c0-1.7,1.4-3,3-3h3c1.3,0,2.4-1.1,2.4-2.4v-18.3c0-1.4,1.1-2.5,2.5-2.5h0ZM429.4,123.1c1.2,0,2.1.9,2.1,2.1v84.5c0,1.2-.9,2.1-2.1,2.1h-16.8c-1.2,0-2.1-.9-2.1-2.1v-66.6c0-2.1-1.7-3.7-3.7-3.7h-21c-2.1,0-3.7,1.7-3.7,3.7v65.9c0,1.5-1.3,2.8-2.8,2.8h-22.5c-1.5,0-2.8-1.3-2.8-2.8v-83.1c0-1.5,1.3-2.8,2.8-2.8,24.3,0,48.5,0,72.8,0h0ZM566.9,123.1h-70.9c-1.8,0-3.3,1.5-3.3,3.3v9.9c0,1.8,1.5,3.3,3.3,3.3h41.6c1.6,0,3,1.3,3,3v9c0,1.6-1.3,3-3,3h-42.1c-1.6,0-2.9,1.3-2.9,2.9v51.5c0,1.6,1.3,2.9,2.9,2.9h71.8c1.6,0,2.9-1.3,2.9-2.9v-82.6c0-1.8-1.5-3.3-3.3-3.3h0ZM535.9,195.5h-18.6c-2.6,0-4.8-2.1-4.8-4.8v-14.3c0-2.6,2.1-4.8,4.8-4.8h18.6c2.6,0,4.8,2.1,4.8,4.8v14.3c0,2.6-2.1,4.8-4.8,4.8h0ZM270.4,211.8h70.9c1.8,0,3.3-1.5,3.3-3.3v-9.9c0-1.8-1.5-3.3-3.3-3.3h-41.6c-1.6,0-3-1.3-3-3v-9c0-1.6,1.3-3,3-3h42.1c1.6,0,2.9-1.3,2.9-2.9v-51.5c0-1.6-1.3-2.9-2.9-2.9h-71.8c-1.6,0-2.9,1.3-2.9,2.9v82.6c0,1.8,1.5,3.3,3.3,3.3h0ZM301.4,139.4h18.6c2.6,0,4.8,2.1,4.8,4.8v14.3c0,2.6-2.1,4.8-4.8,4.8h-18.6c-2.6,0-4.8-2.1-4.8-4.8v-14.3c0-2.6,2.1-4.8,4.8-4.8h0Z"/>
</svg>