<?xml version="1.0" encoding="UTF-8"?>
<svg id="Capa_1" xmlns="http://www.w3.org/2000/svg" version="1.1" viewBox="0 0 1080 1080">
  <!-- Generator: Adobe Illustrator 29.1.0, SVG Export Plug-In . SVG Version: 2.1.0 Build 142)  -->
  <defs>
    <style>
      .st0 {
        fill: #010101;
      }
    </style>
  </defs>
  <path class="st0" d="M966,741.9V228.2c-2.2-25-20.4-43.8-45.5-45.5H161.2c-25.4.6-45.6,20.2-47.2,45.5v515.3c-.7,18,23,43.8,40.4,43.8h286l-6.9,41.2c-2.3,2.4-56.4-3.4-65.9,1.9-4.2,2.3-5.7,6.4-6.2,10.9-1,8.9-1.2,36,.1,44.6.8,4.9,3.8,8.6,8.4,10.5l334.2.9c6.3.4,12.7-3.6,14.2-9.9,1.6-7.1,1.3-38,.4-46-.5-4.6-2.1-8.6-6.2-10.9-9.6-5.4-63.6.5-65.9-1.9l-6.9-41.2h286c17.9,0,41.5-27.1,40.4-45.5ZM691.1,856v13.7h-302.3v-13.7h302.3ZM461,828.5l6.9-41.2h143.3c0,0,7.8,41.2,7.8,41.2h-158ZM938.5,743.5c0,7.2-15,18.8-23.1,16.4H162.9c-7.6,1.8-21.4-9.8-21.4-16.4v-38.6h796.9v38.6ZM938.5,677.4H141.5V226.5c0-6.6,13.8-18.2,21.4-16.4h752.4c8.1-2.4,23.1,9.1,23.1,16.4v450.9Z"/>
  <path class="st0" d="M521,745.3c5.1,1.6,29.4,1.6,35.2.7,14.2-2.2,15.1-22.8,2.8-26.6-5-1.5-31.3-1.6-36.7-.4-12.6,2.8-13.2,22.6-1.3,26.3Z"/>
</svg>