<?xml version="1.0" encoding="UTF-8"?>
<svg id="Capa_1" data-name="Capa 1" xmlns="http://www.w3.org/2000/svg" viewBox="0 0 633.16 899.94">
  <defs>
    <style>
      .cls-1 {
        fill: #e40027;
      }

      .cls-2 {
        fill: #fc003a;
      }
    </style>
  </defs>
  <path class="cls-1" d="M325.22,899.94h-8.79l-3.52-1.23v-421.95l3.52-2.18,6.76-3.72c194.46-8.44,193.45-299.93-.07-308.94l-6.69-3.72-3.52-1.21V2.13L316.43.01c234.28-1.88,388.55,249.56,282.74,459.38l-258.44,427.05c-3.78,6.17-9.92,9.39-15.51,13.5Z"/>
  <path class="cls-2" d="M316.43.01v158.19l-5.29,3.54c-197.83,15.22-198.03,294.51-.11,309.3l5.41,3.54v425.36h-7.03c-6.77-4.49-12.74-8.38-16.55-15.97L37.8,465.83C-74.84,253.24,77.8,1.93,316.43.01Z"/>
</svg>