<?xml version="1.0" encoding="UTF-8"?>
<svg id="Capa_1" data-name="Capa 1" xmlns="http://www.w3.org/2000/svg" viewBox="0 0 851.35 236.08">
  <defs>
    <style>
      .cls-1 {
        fill: none;
        stroke: #828282;
        stroke-miterlimit: 10;
        stroke-width: 6px;
      }

      .cls-2 {
        fill: #828282;
      }
    </style>
  </defs>
  <g>
    <path class="cls-2" d="M197.58,110.76c-5.51-25.69-40.16-26.04-53.53-6.73-11.27-17.2-33.55-17.31-48.54-4.35-1.86-1.06-.03-6.58-.73-7.27-.72-.72-17.47.53-20.59,0v80.11h20.59v-48.79c0-6.03,9.12-14.78,15.63-15.25,6.61-.48,15.25,5.73,15.25,12.33v51.71h20.59v-44.42c0-10.1,8.88-20.81,19.71-19.63,4.22.46,11.17,5.19,11.17,9.43v54.62h22.06c-1.36-19.61,2.47-42.66-1.62-61.76Z"/>
    <path class="cls-2" d="M278.6,99.68c-6.9-2.34-10.72-7.53-18.51-8.6-62.56-8.64-58.7,90.49-1.46,82.76,7.48-1.01,13.13-6.23,19.97-8.6.31,1.59-.41,6.86,0,7.28.72.73,17.47-.53,20.59,0v-80.11h-20.59c-.37,0,.27,6.13,0,7.28ZM249.22,154.27c-22.81-8.57-18.11-43.21,5.55-45.53,35.67-3.49,28.9,58.47-5.55,45.53Z"/>
    <path class="cls-2" d="M428.61,99.68c-1.03,1.2-9.56-5.66-11.76-6.54-18.59-7.4-39.21.25-47.84,18.15-19.34,40.06,22.7,83.13,59.6,52.49.35,1.78-.44,8.29.01,8.74.73.72,17.47-.53,20.59,0v-80.11h-20.59c-.37,0,.27,6.13,0,7.28ZM398.18,153.86c-21.06-8.74-16.75-43.33,6.6-45.13,36.82-2.84,28.42,59.66-6.6,45.13Z"/>
    <path class="cls-2" d="M535.98,99.68v-37.87h-20.59v110.7h20.59v-48.79c0-9.7,16.47-20.07,25.79-12.43,1.36,1.12,5.09,8.38,5.09,9.52v51.71h20.59v-60.45c0-1.13-3.92-9.34-5.08-10.99-10.45-14.79-33.96-12.68-46.39-1.39Z"/>
    <path class="cls-2" d="M635.6,91.29c-43.21,7.23-43.16,78.16,4.08,82.66,65.96,6.27,64.09-94.06-4.08-82.66ZM644.02,155.1c-27.25-1.63-25.79-40.4-5.53-44.91,36.99-8.24,39.24,46.92,5.53,44.91Z"/>
    <path class="cls-2" d="M772.77,101.85c-11.3-15.71-33.26-13.61-47.06-2.17-.29-1.15.35-7.28-.01-7.28h-20.59v80.11h20.59v-47.34c0-1.05,4.65-10.39,5.85-11.68,7.93-8.51,25.03-4.46,25.03,5.86v53.16h20.59v-61.9c0-1.05-3.36-7.32-4.4-8.76Z"/>
    <path class="cls-2" d="M503.65,93.24c-.29-1.95-11.79-.25-11.79-.84v-29.13h-20.59v29.13c0,.51-10.03-1.06-10.32.84.5,2.67-.59,16.05.02,16.65.49.49,8.29-.35,10.3,0v62.63h20.59v-62.63c2.18-.37,11.26.52,11.77,0,.61-.61-.48-13.97.02-16.65Z"/>
    <path class="cls-2" d="M344.39,91.28c-6.38,1.31-8.59,5.93-12.82,9.86-.36-1.8.47-8.28,0-8.75-.62-.62-14.86.46-17.66,0v80.11h20.59v-48.79c0-.47,2.17-8.15,2.6-9.08,4.99-10.79,14.32-4.21,15.03-4.74.71-.54,6.07-15.85,5.9-16.72-.64-3.23-10.75-2.48-13.64-1.89Z"/>
  </g>
  <rect class="cls-1" x="3" y="3" width="845.35" height="230.08"/>
</svg>