<?xml version="1.0" encoding="UTF-8"?>
<svg id="Capa_1" xmlns="http://www.w3.org/2000/svg" version="1.1" viewBox="0 0 834.8 224.1">
  <!-- Generator: Adobe Illustrator 29.1.0, SVG Export Plug-In . SVG Version: 2.1.0 Build 142)  -->
  <defs>
    <style>
      .st0 {
        fill: #828282;
      }
    </style>
  </defs>
  <polygon class="st0" points="568.4 131.2 582.6 131.2 576.1 119.3 568.4 131.2"/>
  <polygon class="st0" points="351.7 131.2 365.9 131.2 359.3 119.3 351.7 131.2"/>
  <path class="st0" d="M554.6,118.6s1.5-2.2-1.1-2.4h-6.5v-17.7h12.2L467.6,3.4l-91.6,95.1h6.2l29.6,46.2h4.6v14.9h-6.8l59,61.2,60.7-64.1v-12.2h9.1l16.2-25.9ZM526.8,112.1h-11.1c-3.2.1-3.2,2.8-3.2,2.8v27c.2,5.3,5.7,5.3,5.7,5.3h8.6v9.4h-44.7v-9.5h4.8c2.4-.3,2.8-3,2.8-3v-20l-17,32.5h-14.9l-16.6-31.4v19.2c-.1,2.3,2.1,2.6,2.1,2.6h3v9.5h-28.1v-9.6h5.5c3.1.2,4.6-3.3,4.6-3.3v-27.4c-.1-3.9-3.4-4.1-3.4-4.1h-5.1v-9.9h35.4l15.4,27.2,14.4-27.2h41.9v9.9Z"/>
  <path class="st0" d="M89.7,129.4l-15.4-27.2h-35.4l-1.6,54.4h28.1v-9.5h-3s-2.2-.3-2.1-2.6v-19.2l16.6,31.4h14.9l17-32.5v20s-.4,2.7-2.8,3h-4.8v9.5h44.7v-9.4h-8.6s-5.5,0-5.7-5.3v-27s0-2.7,3.2-2.8h11.1v-9.9h-41.9l-14.4,27.2Z"/>
  <path class="st0" d="M150.7,112.1h4.4c3.5.7,3.3,2.8,3.3,2.8v27.6c-.1,4-3.2,4.4-3.2,4.4h-5.5v9.7h80.7v-19.4h-14.6c-.6,9.4-8.3,9.2-8.3,9.2h-25.9v-12.3h37.1v-9.2h-37.3v-12.8h27.7c7,.8,6.3,9.4,6.3,9.4h14.9v-19.3h-79.8v9.9Z"/>
  <path class="st0" d="M320.9,123.9h-41.1v12.7h12.6c1.5-3.6,3.6-3.4,3.6-3.4,2.3.1,2.1,5.2,2.1,5.2,1,6.8-8.8,8.3-8.8,8.3-4.3.6-9.8,0-9.8,0-18.5-4.7-17-18.6-17-18.6.8-16.3,16.4-19.9,16.4-19.9,2.9-.8,7.3,0,7.3,0,20.4,1.7,20.3,11.2,20.3,11.2h14.5v-22.4h-18.5l-.3,4.1c-6.8-3.9-23.6-4.1-23.6-4.1-48.4-.1-46.1,29.1-46.1,29.1-.7,35.1,45.3,31.7,45.3,31.7,41.1.7,43.2-21.1,43.2-21.1v-12.8Z"/>
  <path class="st0" d="M373,147.2h-6.2v9.5h46.6v-9.6h-5.5l-29.5-44.8h-42.9v9.9h8.7c4,.4,2.3,3.3,2.3,3.3l-21,31.7h-8.4v9.5h39.2v-9.4h-11.9c-2,0-.9-2-.9-2l2.6-4.7h25.9l1.9,4c1.7,2-.8,2.6-.8,2.6ZM351.7,131.2l7.7-11.9,6.5,11.9h-14.2Z"/>
  <path class="st0" d="M595.1,102.2h-42.9v9.9h8.7c4,.4,2.3,3.3,2.3,3.3l-21,31.7h-8.4v9.5h39.2v-9.4h-11.9c-2,0-.9-2-.9-2l2.6-4.7h25.9l1.9,4c1.7,2-.8,2.6-.8,2.6h-6.2v9.5h46.6v-9.6h-5.5l-29.5-44.8ZM568.4,131.2l7.7-11.9,6.5,11.9h-14.2Z"/>
  <path class="st0" d="M694.6,127.1l22.6-15h9.5v-9.9h-46.6v9.9h12.3s2.6,0,.7,1.2l-8.4,6.1-22.4-17.3h-28.9v9.8h7.9l21.7,18.2-21,16.6h-7.9v9.9h45.4v-9.9h-16s-3.9.6-.3-1.7l10.5-7.2,22,18.8h31.9v-9.9h-8.6l-24.4-19.6Z"/>
  <path class="st0" d="M768.8,146.8c-5.2.1-6.1-5.4-6.1-5.4v-24.9c1-4.8,5-4.3,5-4.3h4.9v-9.9h-41v9.9h5c5.2-1,6.1,4.8,6.1,4.8v24.8c.4,4.3-4.1,4.4-4.1,4.4h-6v10.5h41.4v-9.8h-5.1Z"/>
</svg>