<?xml version="1.0" encoding="UTF-8"?>
<svg id="Capa_1" data-name="Capa 1" xmlns="http://www.w3.org/2000/svg" viewBox="0 0 806.07 814.25">
  <defs>
    <style>
      .cls-1 {
        fill: #f54761;
      }
    </style>
  </defs>
  <path class="cls-1" d="M324.55,314.44c-2.43-.66-2.78.66-4.19,1.62-9.14,6.28-27.06,26.85-35.95,35.94-68.84,70.39-136.75,141.85-207.71,210.29-50.02,29.38-101.11-29.59-63.97-75.67,96.68-96.27,190.34-195.29,287.88-290.63,32.06-16.35,51.6-5.99,72.38,19.02,22.87,27.51,42.57,58.87,66.12,86.01l179.62-183.28c.55-3.08-24.39-24.89-28.26-29.91-17.59-22.79-8.25-54.77,19.68-62.16,48.94-4.65,103.4-22.44,151.68-25.54,28.13-1.81,46.21,15.78,44.06,44.06-3.86,50.78-20.1,107.44-27.36,158.22-11.81,23.18-38.83,28.9-59.38,12.56-7.11-5.65-20.81-23.81-26.75-26.87-1.29-.66-2.06-1.12-3.32,0l-226.85,229.73c-20.06,12.98-44.29,11.49-62.3-4.02-25.57-32.71-51.76-65.3-75.39-99.35Z"/>
  <path class="cls-1" d="M694.91,283.14c4.98,4.71,22.63,6.15,25.98,8.68,1.17.88,1.62,1.92,1.65,3.36l-.42,487.85c-2.1,12.57-16.68,27.16-29.26,29.26-14.48,2.42-78.37,2.43-92.84,0-15.1-2.53-27.97-17.12-29.66-32.2l.04-369.48,1.54-3.47,122.96-124Z"/>
  <path class="cls-1" d="M493.45,481.63v300.13c0,.58-3.6,9.28-4.34,10.71-4.38,8.38-14.57,17.55-23.99,19.49-14.54,2.99-75.22,2.56-91.23.74-12.82-1.45-26.09-10.73-30.58-22.92-.87-2.37-3.69-13.02-3.69-14.7v-320.19c8.12,2.9,13.36,12,20.2,17.42,38.02,30.08,91.43,32.3,133.62,9.34Z"/>
  <path class="cls-1" d="M264.39,474.94v303.47c0,15.73-17.5,32.13-32.75,34.13-18.58,2.44-67.7,2.06-86.78.12-19-1.92-32.38-17.2-34.28-35.95-4.73-46.9,3.57-101.19-.12-148.89.89-7.95,12.71-9.81,17.7-15.74l136.23-137.14Z"/>
</svg>