<?xml version="1.0" encoding="UTF-8"?>
<svg id="Capa_1" xmlns="http://www.w3.org/2000/svg" version="1.1" viewBox="0 0 1080 1080">
  <!-- Generator: Adobe Illustrator 29.1.0, SVG Export Plug-In . SVG Version: 2.1.0 Build 142)  -->
  <defs>
    <style>
      .st0 {
        fill: #010101;
      }
    </style>
  </defs>
  <path d="M194.2,138.7c4.7-1,9.4-1.1,13.9.7l111.2,49c14.8,13.3,5.6,35.9-14.8,30.6-30.1-18.4-86.4-30.2-113.2-49.7-12.7-9.3-13.2-27.1,2.8-30.6Z"/>
  <path class="st0" d="M183.6,285.8c7.3-2.2,32.2-.9,41.6-.6,19.5.6,52.3,2,70.7,5.4,17.8,3.3,18.2,33.4-5.2,34.3s-10.6-2.7-15.7-2.8c-18.8-.5-79.3-.4-92.6-7.2-10.9-5.5-10.3-25.6,1.2-29.1Z"/>
  <path d="M288.7,36.3c3.2-.7,6.4-.9,9.7-.5,14.2,1.8,60.7,53,77.8,61.6,12.8,14.9.7,35.8-18.3,28.9l-74.8-61.8c-8.5-9.3-8.2-25.1,5.7-28.2Z"/>
  <path class="st0" d="M301.3,396.9c17.2.9,22.6,22.4,8.4,30.8-5.4,3.2-71.7,17.7-79.6,17.9-21.3.5-27.5-23-8.3-32.2,7.4-3.6,71.5-16.9,79.4-16.5Z"/>
  <path d="M899.6,960.8c-5.6-18.5-34.6-53.1-54.6-53.1h-182.5v-219.3c0-1,9.8-12.5,11.9-17,7.8-16.8,13.6-37.1,9.1-55.2,8.2-.2,16.4.5,24.6-.4,92.5-10.1,94.8-55.2,113.3-133.6,14.7-62.2,34-139.3,42.6-201.7,15.2-110-21.1-143.7-112.2-191.1-68.7-35.8-168.4-69.6-237.3-16.6-39.8,30.6-44.8,66.8-55.6,112.5-22.9,96.1-40.1,193.8-61.6,290.3-5,80.5,63.8,102.7,127.4,122,2.4,28-1.8,51.4,12.2,77.1,2.4,4.4,12.3,15.3,12.6,16.3v216.7h-193.1c-16,0-45,28.2-51.7,42.9-7.6,16.5-11.4,64.1-6.2,80.7,3.4,10.9,16.4,13.4,26.3,13.1l563.7-1.2c24.8-4.9,16.6-64.2,11.1-82.4ZM525.7,472.9c-10.4,16.7-4.1,67.8-2.5,88.1-34.3-5.6-35.4-29.4-34.2-59.2.6-14.1,12.8-46.9-11.9-48.5-28.2-1.8-19.1,61.7-23.4,78.8-38.8-30.9-17.4-77.9-8.9-117.8,20.3-3.1,41.8,1.9,61.3,2.4,42.7,1.2,83.9-3.9,124,12.6,14.2,5.8,39.7,24.9,53.5,20.3,11.7-3.8,13.9-20.7,5-29-4.9-4.5-55.8-27.6-64.4-30.2-38.5-11.5-93.4-6-133.9-7.9-12.2-.6-25-4.9-38-2.7l6.7-29c56.9,10,120.2-7.8,175.2,11.2,14.6,5.1,46.9,25.7,59.8,21.9,12.6-3.7,14.8-21,5.1-29-5.8-4.8-52.5-25.1-61.5-27.8-9.4-2.8-33.2-7.7-42.2-7.7h-130l6.9-29c55.1,4.8,120.5-9.2,173.1,8,16.4,5.4,50.2,26.9,64.4,22.5,13.5-4.2,14.1-22.9,3.5-30.1-7.8-5.3-52-23.3-62.6-26.7-11.2-3.5-33.7-7.8-44.8-7.8h-127.4c3.1-9.9,1.6-32,14.3-31.7,56.1,4.9,122-10.1,174.8,9.4,13.6,5,45.1,25.3,57.1,20.4,12.9-5.4,15.6-20.1,4.3-29.2-6.2-5-41.4-19.2-50.9-22.7-54.8-19.8-109.8-11-166.6-9.1-26.5.9-19.4-8.6-13.3-31.7,6.9-26.2,18.4-52.5,43.3-65.6,3.3,4.3-23.5,43,0,53.8,22.8,10.5,25-23.4,31-37.2,6.9-15.9,16.4-32.5,35.8-32.5,3.2,0,8.6-1.2,6.6,4-2.8,7.3-12.8,18.6-16.2,28.4-5.2,15.2-10.9,41.4,12.3,41.5,19,0,17.1-24.9,23.7-39.6,8.5-19,19-26.5,40.7-23.7-5.7,13.4-15.9,20.8-21.1,35.3-4.6,12.9-8,31.4,9.9,35.1,28,5.7,13-41.7,46.8-46.6,16.8-2.5,43.3,14,58.1,23,56.8,34.7,75.1,68.5,59.9,137.1-12.9-3.8-58.8-41.3-66.4-16.6-8.4,27.1,42.3,38.9,59.6,51l-5,31.2c-15.5-2-62.2-41.2-70.4-13.9-8.5,28.5,59.5,39.2,61.5,51.8.9,5.6-5.7,18-4.3,25.1-6.4,6.2-63.7-45.2-73-13.9-8.5,28.6,62,38.1,64.1,51.8.3,2-5.7,29.4-6.9,30.3-13.1-6.7-59.8-43.2-67.7-16.5-8.2,27.6,56.2,39,59.5,52.5,1.7,6.9-11.8,43.5-16.9,50.6-14,19.7-42.7,22.9-65.4,23.9-14.5.7-60.6-.5-70.7-8.4-23.2-18.1,2.5-81.6-12.3-92.7-38.4-28.8-33,77.5-28.8,93.1-25.3-5-32.7-15.3-34.1-40.8-.8-15.2,8-46,4.7-57.2-3.8-12.8-23.2-16.1-31.1-3.3ZM582.8,673.5c-6.8-3.5-22.8-20.6-22.8-27.1v-43.3l89.3,10.5c9.1,42.2-24,82.1-66.5,59.9ZM628.3,710.8v193.1c0,6-44.7,6-44.7,0v-193.1c15.5,4.2,29.2,2.6,44.7,0ZM869.9,1010.2H331.5c-3.5-38.4,4-66.2,46.3-70.6,143.2,6.8,296.4-10.2,438.4-.4,46.8,3.2,57.2,26.5,53.7,71Z"/>
</svg>