<?xml version="1.0" encoding="UTF-8"?>
<svg id="Capa_1" data-name="Capa 1" xmlns="http://www.w3.org/2000/svg" viewBox="0 0 983.41 696.99">
  <defs>
    <style>
      .cls-1 {
        fill: #1c63e5;
      }
    </style>
  </defs>
  <path class="cls-1" d="M223.52,312.26c15.81,4.25,33.73,18.67,47.99,7.75,16.28-12.46,5.22-33.58-11.57-38.44,61.9-49.13,64.52-142.02,2.81-192.73-63.19-51.92-160.34-27.09-190.9,48.51-21.97,54.34-3.86,108.03,38.65,145.15-46.55,19.07-85.71,63.17-100.59,111.26-2.55,8.24-7.73,26.73-8.6,34.55-4.11,36.96,3.07,81.17,0,118.93,9.57,43.91,44.5,82.43,90.92,86.39,29.16,2.48,86.11,2.7,115.1.02,23.19-2.14,27.63-29.98,6.3-39.1-49.21-9.89-140.91,21.61-165.92-37.19-9.28-21.81-7.86-85.27-6.26-110.91,5.83-93.5,89.84-158.98,182.06-134.18ZM175.21,102.75c71.22-8.27,119.41,73.94,75.09,130.81-33.38,42.83-96.79,42.83-130.17,0-38.5-49.4-6.66-123.65,55.09-130.81Z"/>
  <path class="cls-1" d="M574.13,260.46C694.1,171.73,622.89-15.89,472.13,1.08c-35.55,4-73.04,26.79-94.23,55.26-49.44,66.41-34.54,155.65,31.4,204.12-66.87,28.69-118.98,85.44-136.22,157.05-9.79,40.65-9.03,142.59-5.57,186.38,3.58,45.3,41.46,83.88,85.85,90.51,87.87-3.69,182.55,6.74,269.66.62,47.48-3.33,89.11-43.31,92.89-91.13,3.46-43.79,4.22-145.73-5.57-186.38-17.15-71.25-69.35-128.74-136.22-157.05ZM563.84,70.27c91.44,91.66-39.5,235.21-138.16,150.81-107.25-91.75,40.48-248.72,138.16-150.81ZM675.59,598.03c-2.85,31.47-27.17,54.23-58.33,56.69-81.23,6.41-170.79-4.91-252.9-.1-31.58-3.6-54.11-26.52-56.61-58.4-3.28-41.68-3.85-135.47,6.36-174.08,19.25-72.79,85.16-128.17,159.99-135.2,88.36-8.31,172.54,49.37,195.24,135.2,9.99,37.8,9.94,135.23,6.26,175.9Z"/>
  <path class="cls-1" d="M977.35,409.11c-12.4-55.48-51.79-104.71-104.42-126.61,47.45-41.42,63.5-103.85,30.97-160.48-46.65-81.21-166.4-80.42-212.04,1.25-30.92,55.34-16.5,118.97,31.64,158.3-15.64,5.11-27.15,22.62-13.49,36.52,14.08,14.33,32.12-.78,48.43-5.38,94.22-26.62,177.73,40.62,183.53,135.66,1.55,25.5,3.01,87.21-6.26,108.99-23.44,55.11-109.46,31.31-157.68,35.84-25.57,2.4-30.42,29.55-7.19,39.95,75.04-2.68,175.75,23.3,206.07-69.07,9.67-29.47,7.46-123.56.44-154.97ZM733.13,233.56c-38.5-49.4-6.66-123.65,55.09-130.81,71.22-8.27,119.41,73.94,75.09,130.81-33.38,42.83-96.79,42.83-130.17,0Z"/>
</svg>