<?xml version="1.0" encoding="UTF-8"?>
<svg id="Capa_1" xmlns="http://www.w3.org/2000/svg" version="1.1" viewBox="0 0 540 426.88">
  <!-- Generator: Adobe Illustrator 29.1.0, SVG Export Plug-In . SVG Version: 2.1.0 Build 142)  -->
  <path d="M515.64,288.33c-15.66-67.25-95.65-96.46-152.16-57.69-52.28-51.07-139.71-49.44-190.34,3.01-2.16.56-12.65-5.86-15.82-7.14-58.37-23.54-128.72,14.44-135.81,78.15-1.48,13.3,1.1,29.14,0,42.73,3.54,8.95,9.09,15.08,19.03,16.4l94.48.11c-.04,14.23,11.87,25.3,25.73,26.2h218.25c17.06-1.56,27.72-14.98,25.72-32.03l90.75.04c9.88-.02,20.85-7.17,22.53-17.26,2.06-12.34.52-40.12-2.36-52.52ZM135.03,347.4H40.43c-1.23,0-2.3-3.04-2.47-4.32-1.35-10.05-.5-35.11,1.66-45.05,11.39-52.58,76.04-79.78,121.59-51.07-21.35,29.65-28.84,64.07-26.18,100.44ZM389.21,362.45c-.62,5.68-3.75,11.33-10.14,11.21h-218.38c-6.39.3-10.24-6.43-10.22-12.18.06-24.1-1.14-49.45,6.86-72.85,14.36-41.98,55.4-74.93,99.75-78.84,46.58-4.11,91.06,16.83,115.08,57.08,15.13,25.35,17.05,48.12,17.1,77.16.01,5.37.5,13.49-.04,18.42ZM501.79,337.25c-.17,1.28-1.24,4.32-2.47,4.32h-94.59c2.28-35.58-6.92-71.19-30.06-98.56,42.36-29.03,102.72-10.21,121.72,37.4,5.74,14.38,7.46,41.57,5.4,56.84Z"/>
  <path d="M277.14,183.27c91.75-11.18,80.17-152.08-14.25-146.33-100.32,6.11-87.16,158.69,14.25,146.33ZM259.97,53.45c79.42-8.25,87.46,107.98,12.31,114.29-75.98,6.38-85.58-106.68-12.31-114.29Z"/>
  <path d="M432.71,200.13c69.47-15.41,52.76-119.76-18.48-112.69-79.63,7.9-60.43,130.2,18.48,112.69ZM379.79,133.56c3.55-14.1,18.01-27.69,32.46-29.65,46.15-6.26,67.83,50.87,30.23,74.93-31.77,20.33-71.98-8.39-62.69-45.27Z"/>
  <path d="M136.73,202.96c65.68-19.45,45.71-118.34-22.28-111.64-82.94,8.18-58.39,135.53,22.28,111.64ZM112.48,107.79c64.21-8.76,64.35,89.85,0,81.07-44.95-6.13-44.96-74.93,0-81.07Z"/>
</svg>