<?xml version="1.0" encoding="UTF-8"?>
<svg id="Capa_1" xmlns="http://www.w3.org/2000/svg" version="1.1" viewBox="0 0 1080 1080">
  <!-- Generator: Adobe Illustrator 29.1.0, SVG Export Plug-In . SVG Version: 2.1.0 Build 142)  -->
  <defs>
    <style>
      .st0 {
        fill: #565656;
      }

      .st1 {
        fill: #155dfc;
      }
    </style>
  </defs>
  <g>
    <path class="st1" d="M-43.8,3687.2c-5,9.4-9.8,14.9-20.9,16h-701.7c-17.5-2.4-25.8-22.6-14.4-36.3s10.6-7.3,11.5-7.3h28.3v-154.4c1.6-10.3,8.9-18.3,19.5-19.6,18-2.2,73.3-2.2,91.4,0s10.5,3.5,13,5.8,6.5,10.3,6.5,10.9v157.3h43.5v-209.5c0-.6,5.4-9.9,6.5-10.9,1.9-1.8,9.1-5.3,11.7-5.7,29.2,2,62.6-3,91.3-.2,4.4.4,11.2,2.8,14.5,5.8s6.5,10.3,6.5,10.9v209.5h43.5v-289.2c0-.6,5.4-9.9,6.5-10.9,1.9-1.8,9.1-5.3,11.7-5.7,29.2,2,62.6-3,91.3-.2,4.4.4,11.2,2.8,14.5,5.8s6.5,10.3,6.5,10.9v289.2h43.5v-434.1c0-.6,5.4-9.9,6.5-10.9,1.9-1.8,9.1-5.3,11.7-5.7,29.2,2,62.6-3,91.3-.2,10.7,1.1,17.4,6.9,20.6,17.1l.3,433.8h28.3c.6,0,9.3,4.9,10.2,5.8,3.1,2.9,3.3,7.5,6.5,10.2v11.6Z"/>
    <path class="st1" d="M-96,2961c6.4,1.1,11.9,2,15.3,8.2,14.5,45.7,29.3,93.6,36.9,141.1v10.1c-7.5,21.9-35.2,21.8-43.1.3-8.3-22.5-11.1-50.7-19.3-73.5s-.7-3.5-2.8-3.7c-8.3,15.1-17.8,29.9-27.8,43.9-119.2,167.7-333.6,304.9-538.4,334.2-22.9,3.3-74.2,9.9-95.1,5.7-21.6-4.4-21.6-40.3,6.9-43.1,14.9-1.5,32.1-.2,47.8-1.5,130.1-10.6,262.8-70,367.3-145.8,81-58.8,153.2-132.4,204.5-218.7-.9-1.7-4.3-.3-5.9,0-24.9,4.4-51.6,16.3-76.5,20.7-27.6,4.9-40.1-22.1-19-39.3l139-38.5h10.1Z"/>
  </g>
  <g>
    <path class="st0" d="M962.8,528.5c1.6,17.6,17.4,20.6,26.4,6.1v-107l-3.9-12.8c-13.1-35.7-46.9-51.6-83.8-48.6.2-24.4,5.7-55.1-27.1-58-20.9-1.8-69.1-2.3-89.4.3-9.6,1.2-25.6,11.3-25.6,21.7v36h-31.6v-36c0-7.6-12.8-18.2-20.1-20.3-12.5-3.5-83.4-3.5-98.2-1.5-7.9,1.1-23.8,12.4-23.8,20v37.7h-264.9v-26.3l473.7-166c4.8-1,7.5,5,11.7,7.8,44.9,29.9,89.9-30,54.2-64.7-27.5-26.7-72.1-5.1-72.2,31.9l-474.4,165.8c-8.2-1.2-12.9-5.6-21.9-6.4-21.8-2-64.3-1.9-86.1,0-32.8,2.9-27.3,33.6-27.1,58-43.8-4.1-84.2,21.8-87.8,67.5v473.8c3,37.8,32.1,64.2,69.3,67.5h759.8c35.3-2.8,60.5-26.1,69.2-59.7v-336.9c-7.6-12.1-24.6-10.8-26.3,4.4l-.4,327.7c-.8,16.4-23.3,38.2-39,38.2h-311.4V392.4h309.7c10.9,0,25.7,10.1,32.2,18.7,17.3,23.3,6.1,86.4,9,117.3ZM829.1,131.3c20.1-2.6,23.1,28,6.5,31.2-24.9,4.8-27.2-28.6-6.5-31.2ZM204.9,334.5h89.5v31.6h-89.5v-31.6ZM585.6,946c0,.2-2.4,2.6-2.6,2.6H156.7c-16.9,0-39.8-23.7-39.5-41.3v-470.3c.6-23.7,18.5-41,41.2-44.7h424.6c.2,0,2.6,2.4,2.6,2.6v550.9ZM701.4,366.1h-89.5v-31.6h89.5v31.6ZM875.1,366.1h-89.5v-31.6h89.5v31.6Z"/>
    <path class="st0" d="M931.1,449.6c-1.4-10.6-7.7-18.7-17.3-23l-251.4-.4c-6.9,1.4-16.2,10.2-18,17.1-2.2,8.6-2.2,64.6-.4,74.2,2.1,11.5,13.5,20.6,25,20.7h238.7c9.8-1.2,20-10.4,22.4-19.7,2.7-10.3,2.6-57.2,1-68.8ZM905,511.7h-235.1v-59.7h235.1v59.7Z"/>
    <path class="st0" d="M916.4,715.3l-262.8.4c-12.8,4.2-13.9,17.7-3,25l267.6,1c18.8-2.2,16.9-26.2-1.8-26.4Z"/>
    <path class="st0" d="M920,799.6c10.7-1.2,14.7-15,7.3-22.4-2.6-2.6-8.9-3.8-12.6-4.1-80.8-7.3-172.6,5.7-254.6,0-18.3-1.9-24.3,24.2-5.2,26.4h265Z"/>
    <path class="st0" d="M654.9,857.4h265c18.4-5.1,12.1-25.5-5.4-26.3l-257.4.5c-16.7.3-19.5,24.2-2.3,25.9Z"/>
    <path class="st0" d="M705.8,683.7c72.1-6.5,63.5-119.3-10-113.6-74.5,5.8-66.6,120.5,10,113.6ZM697.6,596.3c38.4-3.1,45.1,58.1,4.7,61.1-40.5,3-44-57.9-4.7-61.1Z"/>
    <path class="st0" d="M879.5,683.7c72.6-6,64.8-117.8-8.2-113.6-75.7,4.5-67.9,119.9,8.2,113.6ZM871.3,596.3c40-4,44.7,56.3,8.1,60.9-42.6,5.4-47.9-56.9-8.1-60.9Z"/>
    <path class="st0" d="M343.2,468.4c-145,5.7-237.8,160.9-173.6,291.9,3.7,7.5,20.3,36,27.6,37.4,10.2,2,18.7-5.8,16.3-16.3-1.3-5.6-12.7-19.2-16.3-25.8-95.1-173.5,126.6-347.7,272.9-215,146.3,132.8-10.3,373-191.9,290.1-8.5-3.9-33.7-21.7-39.1-22-8.3-.5-15.8,8.5-13.5,16.7,2.9,10.3,35.9,26.6,46.3,31,157.7,66.8,320.3-78.7,273.1-243.3-25.2-87.7-110.3-148.3-201.6-144.7Z"/>
    <path class="st0" d="M400.2,741.3c73.7-53.4,28.4-167.9-64.1-155.4-47.2,6.4-78,56.3-69.3,101.7,11.3,59.2,84.5,89.1,133.5,53.7ZM293.5,655.5c5.1-20.5,24.9-40.3,46.1-43.3,66.9-9.7,97.5,73.5,43.4,108.4-45.5,29.3-102.6-12.7-89.6-65Z"/>
  </g>
</svg>