<?xml version="1.0" encoding="UTF-8"?>
<svg id="Capa_1" xmlns="http://www.w3.org/2000/svg" version="1.1" viewBox="0 0 1080 1080">
  <!-- Generator: Adobe Illustrator 29.1.0, SVG Export Plug-In . SVG Version: 2.1.0 Build 142)  -->
  <defs>
    <style>
      .st0 {
        fill: #155dfc;
      }
    </style>
  </defs>
  <path class="st0" d="M911.1,895.1c-5,9.4-9.8,14.9-20.9,16H188.5c-17.5-2.4-25.8-22.6-14.4-36.3s10.6-7.3,11.5-7.3h28.3v-154.4c1.6-10.3,8.9-18.3,19.5-19.6,18-2.2,73.3-2.2,91.4,0s10.5,3.5,13,5.8,6.5,10.3,6.5,10.9v157.3h43.5v-209.5c0-.6,5.4-9.9,6.5-10.9,1.9-1.8,9.1-5.3,11.7-5.7,29.2,2,62.6-3,91.3-.2,4.4.4,11.2,2.8,14.5,5.8s6.5,10.3,6.5,10.9v209.5h43.5v-289.2c0-.6,5.4-9.9,6.5-10.9,1.9-1.8,9.1-5.3,11.7-5.7,29.2,2,62.6-3,91.3-.2,4.4.4,11.2,2.8,14.5,5.8s6.5,10.3,6.5,10.9v289.2h43.5v-434.1c0-.6,5.4-9.9,6.5-10.9,1.9-1.8,9.1-5.3,11.7-5.7,29.2,2,62.6-3,91.3-.2,10.7,1.1,17.4,6.9,20.6,17.1l.3,433.8h28.3c.6,0,9.3,4.9,10.2,5.8,3.1,2.9,3.3,7.5,6.5,10.2v11.6Z"/>
  <path class="st0" d="M859,168.9c6.4,1.1,11.9,2,15.3,8.2,14.5,45.7,29.3,93.6,36.9,141.1v10.1c-7.5,21.9-35.2,21.8-43.1.3-8.3-22.5-11.1-50.7-19.3-73.5s-.7-3.5-2.8-3.7c-8.3,15.1-17.8,29.9-27.8,43.9-119.2,167.7-333.6,304.9-538.4,334.2-22.9,3.3-74.2,9.9-95.1,5.7-21.6-4.4-21.6-40.3,6.9-43.1,14.9-1.5,32.1-.2,47.8-1.5,130.1-10.6,262.8-70,367.3-145.8,81-58.8,153.2-132.4,204.5-218.7-.9-1.7-4.3-.3-5.9,0-24.9,4.4-51.6,16.3-76.5,20.7-27.6,4.9-40.1-22.1-19-39.3l139-38.5h10.1Z"/>
</svg>