<?xml version="1.0" encoding="UTF-8"?>
<svg id="Capa_1" xmlns="http://www.w3.org/2000/svg" version="1.1" viewBox="0 0 1080 1080">
  <!-- Generator: Adobe Illustrator 29.1.0, SVG Export Plug-In . SVG Version: 2.1.0 Build 142)  -->
  <defs>
    <style>
      .st0 {
        fill: #3a3a3a;
      }
    </style>
  </defs>
  <path class="st0" d="M618.9,872.2h-34.3v-149.2c0-1.2-5.7-8.5-7.4-9.2-7.6-3.4-22.2,1.2-22.2,9.2v149.2H169.5v-296.5h126.9c1.1,0,7.3-4.9,8.4-6.4,7.1-9.7.5-20.7-10.3-23.1-44.4,3.6-97.4-5.2-140.8-.1-4.8.6-13.9,5.3-13.9,10.2v315.9h-34.3c-13.7,0-11,41.3-10.2,50.9,3.4,37.8,34,65.2,71.2,67.7,126.7,8.8,263.4-6.9,391.2,0,36.1-1.6,67.3-30,71-66.1,1-9.5,4-52.6-10-52.6ZM580.7,952.7c-3,2.1-14.9,8.5-17.4,8.5h-38c7.1-40.2-36.8-40.2-29.6,0H228.8c7.1-40.2-36.8-40.2-29.6,0h-38c-2.6,0-14.5-6.4-17.4-8.5-17.2-12.3-20.4-30.8-18.7-50.8h474.4c1.7,20-1.5,38.5-18.7,50.8Z"/>
  <path class="st0" d="M610.8,513.3c-2.8-4.6-10.6-19-14.1-21.1-12-7.2-26.7,3.1-22.5,16.8l65.9,116.7-240.8,90c-31.2,10.3-74.2,63.2-102.8,24.8-5.1-6.8-29.5-49.1-31.3-55.8-9.7-36.7,42.5-48,65.4-64.5.3,3.2,1.9,6,3.4,8.7,7.1,12.4,26.6,50.3,34.5,58.2,12.1,12,30.7-.6,24.3-16.9l-37.1-63v-5.5c-.1,0,186-149.9,186-149.9,5.3,22.2,36.1,21.3,31.3-2.6-2.2-11.3-23.4-49.4-39.1-32.6-92.1,71.1-173.9,156.9-277.4,211.8-12.9,11-21.9,27.2-22.3,44.5-.1,4.8,3.1,17,1.7,19.2-.7,1.1-18.4,8.9-22.9,13.2-34.7,33.7,1.2,91.2,49.1,73.2,4.8-1.8,15.8-10.5,19.2-9.8,1.1.2,11.4,8.7,15.3,10.6,24.8,12,46.4,4.8,68.2-9,17.8,22.3,27,64.5,58.1,71.7,37.7,8.7,65.4-27.6,50.2-63.2-2.8-6.6-29.2-47-27.6-49.3l220.5-82.5c8.1-3.6,14-12,9.7-20.8-23-36.8-42.3-76-65-112.9ZM229.6,742.6c-4.3-13.6,17.1-27,21.3-24,1.2.8,10.4,22.6,13.1,25.8-10.5,4.8-29,15.3-34.4-1.7ZM446.6,792.4c6.2,16.1-11.8,29.5-24.3,16.9-3.7-3.7-26.4-42.8-29-48.8-.9-2.2-2.1-4.3-1.3-6.7,6.5-.8,20.2-14.1,25.8-10.5,5.8,3.8,21.3,41.8,28.8,49.1Z"/>
  <path class="st0" d="M747.3,230.6c-3.3-14.6-27.5-16-29.3,5.1-2,22.3-2.3,70.8,0,92.8,2.1,19.8,19.9,37.7,39.8,39.8,59.7-4.1,126.6,5.4,185.4,0,22.1-2,38.1-18.2,41.6-39.9-4.7-59.5,6.3-128.8,0-187.2-2.2-20.1-19.8-37.7-39.8-39.8-59.1-6.4-130.1,4.5-190.4.5-16,2.5-32.7,18.7-35.7,34.7-1.6,8.2-2.2,35.5-.4,43.2,2.9,12.9,22.8,14.5,27.9,2.7,5.8-13.5-6.9-46.8,12-51l187.8.4c7.2,3,8.6,7.7,9.3,14.8,5.2,57-4,121.9-.2,179.7-1,6.9-6.7,12-13.7,12.2-57.3-4-121.5,5.2-178,0-9.4-.9-14.5-4-15.7-13.9-3.4-29.2,3-64.3-.4-94.1Z"/>
  <path class="st0" d="M955.6,698.6c3.3,14.6,27.5,16,29.3-5.1,2-22.3,2.3-70.8,0-92.8-2.2-20.1-19.8-37.7-39.8-39.8-59.1-6.4-130.1,4.5-190.4.5-17.6,3.6-34.1,19.7-36.4,37.7-7.5,57.3,5.3,129.9-.2,188.9,2.6,20.3,19.4,37.2,39.8,39.8,59.7-4.1,126.6,5.4,185.4,0,21.1-1.9,39.3-18.5,41.6-39.9,1.4-12.9,4.4-47-12.2-49.1-33.4-4.3-3.8,53.4-28,58.9l-187.8-.4c-7.1-3-8.6-7.6-9.3-14.8-5.2-56.5,4.1-120.7,0-178,.2-7.7,6.3-13.7,13.9-13.9,57.3,4,121.5-5.2,178,0,9.4.9,14.5,4,15.7,13.9,3.4,29.2-3,64.3.4,94.1Z"/>
  <path class="st0" d="M95.3,486c.9,10.2,5,15.6,15.8,15.8,56.8-4,120.3,5.1,176.2,0,10.2-.9,15.6-5,15.8-15.8-5.3-75.9,6.8-160.7,0-235.5-.9-9.5-4-14.5-13.9-15.7l-183.1.4c-6.2,1.7-10.5,7-10.6,13.5,5.3,76.4-6.9,162,0,237.3ZM125,264.4h148.2v207.5H125v-207.5Z"/>
  <path class="st0" d="M476.2,353.4c175.1-12.7,155.3-283.2-23.5-266.3-171.5,16.3-150.8,278.9,23.5,266.3ZM454.5,116.7c140.9-14,155.1,197.2,19.8,207-136.4,9.8-151.3-193.9-19.8-207Z"/>
  <path class="st0" d="M843.6,635.6c-74.5,9-64.5,123.6,12.4,118,78.5-5.7,68.8-127.9-12.4-118ZM857.5,723.5c-41.7,6.7-47.8-52.6-12.1-58.4,41.7-6.7,47.8,52.6,12.1,58.4Z"/>
  <path class="st0" d="M821.8,249.6v49.1c0,12.9,29.6,12.9,29.6,0v-49.1c40.2,7.1,40.2-36.8,0-29.6-5.8-43.5,24.6-24.7,48.7-30.1,12.9-2.9,14.5-22.8,2.7-27.9-6.4-2.7-38-2.1-45.9-.6-26.2,5-39.3,33.8-35.1,58.5-40.2-7.1-40.2,36.8,0,29.6Z"/>
  <path class="st0" d="M776.4,486.6c-10.8,0-67.9,11.7-79.1,15.6-10.5,3.6-14.1,16.4-6.5,24.8,3.8,4.2,9.7,4.6,15.1,4.3,12.5-.7,64-11,75.6-15.3,17.3-6.5,13.1-29.3-5.1-29.3Z"/>
  <path class="st0" d="M624.5,409l47.7-63.5c5.3-12.7-3.9-24.4-17.6-21.4-3,.6-4.8,2.3-6.9,4.3-16,14.9-30.5,46.2-46.8,62.5-7,15.6,10.8,29,23.6,18.1Z"/>
  <path class="st0" d="M665.6,470.6l63.5-47.7c9.5-12.2,0-28.2-15.4-24.7l-66.2,48.7c-10.9,12.9,2.5,30.7,18.1,23.6Z"/>
  <path class="st0" d="M233,353.8c-7.3-1.6-60.4-1.6-67.8,0-14.2,3.2-14.2,25.7,0,28.9,8.4,1.9,57,1.7,66.2.3,16-2.5,16.1-25.9,1.6-29.1Z"/>
  <path class="st0" d="M233,413.1c-7.3-1.6-60.4-1.6-67.8,0-14.2,3.2-14.2,25.7,0,28.9,8.4,1.9,57,1.7,66.2.3,16-2.5,16.1-25.9,1.6-29.1Z"/>
  <path class="st0" d="M193.5,322.9c5.5,1.7,31.7,1.7,38,.7,15.4-2.4,16.2-24.6,3-28.7-5.3-1.7-33.8-1.7-39.5-.4-13.6,3-14.3,24.4-1.4,28.4Z"/>
  <path class="st0" d="M442,278.4c26.6-16.9,64.8-27.9,90.2-45.1,10.1-6.8,11.6-18.5,1.2-26-10.7-7.7-77.4-41.2-90.1-45.2-4.2-1.3-6.5-2.1-11.1-1.1-6.6,1.4-9.9,7.2-10.7,13.5-2.2,19.1-2.2,71.8,0,90.9,1.3,11.1,9.9,16.2,20.5,13ZM451.2,199.6c4.4,3.6,38.4,17.4,38.9,19.5,1,3.8-1.8,2.6-3.7,3.7-11.3,6.5-23.8,11.3-35.3,17.6v-40.8Z"/>
</svg>