<?xml version="1.0" encoding="UTF-8"?>
<svg id="Capa_1" xmlns="http://www.w3.org/2000/svg" version="1.1" viewBox="0 0 1080 1080">
  <!-- Generator: Adobe Illustrator 29.1.0, SVG Export Plug-In . SVG Version: 2.1.0 Build 142)  -->
  <defs>
    <style>
      .st0 {
        fill: #155dfc;
      }
    </style>
  </defs>
  <path class="st0" d="M967.5,875.4l-238.2-238.7c129-197,34.3-463.8-189-535.3-193.2-61.9-399.1,51.6-451.8,245.6-5.3,19.7-7.6,39.8-12.6,59.5v7.1c.5,1.4.8,2.3,0,3.6v7.1c1.5,3.4,1.5,7.3,0,10.7v10.7c1.5,3.4,1.5,7.3,0,10.7v7.1c.5,1.4.8,2.3,0,3.6v7.1c5,19.7,7.3,39.8,12.6,59.5,63.1,232.8,337.2,336.6,539.7,204.1l239.6,239.1c11.5,10.4,24.5,14.9,39.2,18.7h17.8l16-4.5c47.4-18.2,61.4-78.3,26.8-115.7h0ZM152.1,596.3c-115.4-207.6,27.6-463.3,263.3-475.8,255.6-13.6,423.6,267.5,289.4,486.9-127.4,208.3-434.2,202.1-552.7-11.1ZM657.9,716.8l49-50.3,50.3,49c.6,3.6-43,44.6-49,50.3l-50.3-49ZM890.1,949.2l-157.5-157.4,50.7-50.7,155.8,155.6c35.1,35.5-11.6,85.4-48.9,52.5Z"/>
  <path class="st0" d="M415.4,156.1c-231.6,14.1-352.2,287.3-202.4,466.5,136.9,163.8,400.3,123.3,481.8-73.3,80.1-193.2-71.1-405.9-279.3-393.2h0ZM651,559c-90.5,168.3-332.1,174.2-431.7,11.1-97.6-159.9,10.5-365.9,196.1-378.4,194.5-13.1,328.1,195.1,235.6,367.2h0Z"/>
  <path class="st0" d="M462.7,228.8c-9.8-1.4-23.6-3.3-33.1-1.6-15.6,2.8-21.8,22.2-7.5,31.6,7.8,5.2,26.6,3.9,37.1,5.6,51.1,8,97.8,39.5,124.7,83.5,8.7,14.3,18.1,51.7,40.8,37,16.6-10.7-.9-39.3-8.1-51.9-31.5-54.8-91.1-95.3-153.8-104.2h0Z"/>
  <path class="st0" d="M623.5,422.9c-26.2,5.8-9.5,48.1,13.8,31.7,17.3-12.1,3.3-35.5-13.8-31.7Z"/>
</svg>