<?xml version="1.0" encoding="UTF-8"?>
<svg id="Capa_1" xmlns="http://www.w3.org/2000/svg" version="1.1" viewBox="0 0 1080 1080">
  <!-- Generator: Adobe Illustrator 29.1.0, SVG Export Plug-In . SVG Version: 2.1.0 Build 142)  -->
  <path d="M936.9,219.1H143.2c-17.4.9-29.3,15.9-30.9,32.6v503c-.5,15.9,17.2,34.2,32.6,34.2h343.3c-3.7,17.6-9.1,35.5-18.4,51-13.5,3.9-62.2-4.1-70.3,4.9-5.4,6-1.4,17.5,7.5,16.1l270.4-.4c5.7-2.6,7-11,2.9-15.6-8.1-9-56.8-1-70.3-4.9-9.2-15.5-14.7-33.4-18.4-51h343.3c.8,0,8.8-2.4,10.4-3,12.7-4.6,17.4-13.7,22.2-25.4V245.9c-6.4-14.7-13.5-25.3-30.8-26.8ZM493.3,840.7c5.3-17.1,13.1-33.7,15.1-51.7l62.4-.2,16,51.9h-93.6ZM947.8,751.3c-.8,8.3-2.2,13.1-10.5,16.2-264.1,2.5-529,1.5-793.2.5-3.9-1.8-8.6-3.8-10.4-8-3-168.1-.3-336.7-1.3-505,.1-6.1,3.2-14,9.6-15.4l791.6-.4c6.7-.4,10.6,2.8,12.8,8.9,3,167.5.4,335.6,1.4,503.3Z"/>
  <path d="M632.8,427.9l-190.2.4c-7.7,2.8-10.6,7.5-11.3,15.4-3.5,38.8,2.9,82.8,0,122.1,1.1,8,8.5,11.8,15.9,12.5,59.3,5.5,127-4.3,187.2,0,5.8,0,9.8-4.4,13.3-8.4l.9-127.8c-.6-8.1-7.7-14.6-15.8-14.2ZM628.6,558.3h-177.1v-110.3h177.1v110.3Z"/>
  <path d="M716.7,314.7c-4.8,1-8.2,5.6-7.9,10.4.4,6.6,12.2,14.8,16.6,20.2,76.5,94,77.5,219.2,1.7,314-5.9,7.4-25.3,20-15.1,30.2,8.8,8.8,21.1-7.2,26.9-13.4,86.1-94.1,84.9-252.8-.9-346.7-5.2-5.6-13.4-16.4-21.4-14.7Z"/>
  <path d="M353,659.3c-68.8-87.8-76.8-203.2-12.1-296,4.6-6.6,29.7-33.9,30.2-36.8,1.4-7.9-6-14.1-13.6-11.9-5.1,1.5-26.7,28.4-31,34.3-69.8,96.7-66.3,235.3,13.1,325.4,5.9,6.7,20.3,25.3,29.2,14.2,8-10.1-10.1-22.1-15.8-29.3Z"/>
  <path d="M681.2,379.5c-4.5-4.8-10.8-12.8-18-11.4-21.5,4.1,6.9,29.1,11.8,35.9,39.3,53.8,43,126.7,9.3,184.2-8.3,14.2-19.2,25.1-28.8,38.1,3.5,23.9,18.9,8.5,28.1-2.1,58.1-66.8,58.6-179.4-2.4-244.7Z"/>
  <path d="M412.6,368.1c-12.1,2.2-38.5,46.3-43.8,58.3-28.4,64.4-18.6,145.5,28.3,198.8,5.8,6.6,18.4,21.4,25.7,9,5.9-10.2-11.9-23.6-18.5-32.8-40.3-55.7-42.1-130.1-5.3-188.2,4.1-6.4,25-30.4,25.5-33.1,1.4-7.4-4.8-13.2-11.9-11.9Z"/>
  <path d="M524.5,540.2c17.1-8.3,32.7-20.3,49.6-28.9,5.4-5.2,5-9.7.3-14.9-3.2-3.6-51-31.8-56.5-33.7-3.2-1.1-4.8-1.7-8.3-1-4.6,1-7.1,4.5-7.8,9-1.8,11.6-1.5,51.3-.1,63.4,1.9,16.1,12.9,10.9,22.9,6.1ZM521.7,489.8l4.9.9,20.1,13.3-25.1,14.2v-28.4Z"/>
</svg>