<?xml version="1.0" encoding="UTF-8"?>
<svg id="Capa_1" xmlns="http://www.w3.org/2000/svg" version="1.1" viewBox="0 0 1080 1080">
  <!-- Generator: Adobe Illustrator 29.1.0, SVG Export Plug-In . SVG Version: 2.1.0 Build 142)  -->
  <defs>
    <style>
      .st0 {
        fill: #010101;
      }

      .st1 {
        fill: #020202;
      }

      .st2 {
        fill: #424242;
      }

      .st3 {
        fill: #050505;
      }

      .st4 {
        fill: #030303;
      }

      .st5 {
        fill: #040404;
      }
    </style>
  </defs>
  <path class="st3" d="M469.99,420.41c17.51-3.69,21.93,21.71,7.27,25.94-17.92,5.17-23.73-22.47-7.27-25.94Z"/>
  <path class="st3" d="M923.12,459.63c12.36,10.05-1.94,28.35-13.7,22.97-19.03-8.69-1.77-35.54,13.7-22.97Z"/>
  <path class="st3" d="M469.99,494.22c26.75-5.51,17.05,36.79-3.45,23.1-10.09-6.73-7.48-20.85,3.45-23.1Z"/>
  <path class="st3" d="M910.87,494.22c26.75-5.51,17.05,36.79-3.45,23.1-10.09-6.73-7.48-20.85,3.45-23.1Z"/>
  <path class="st3" d="M910.87,531.13c26.75-5.51,17.05,36.79-3.45,23.1-10.09-6.73-7.48-20.85,3.45-23.1Z"/>
  <path class="st3" d="M506.9,457.32c11.93-2.51,21.85,11.34,12.88,21.21-17.09,18.79-33.89-16.79-12.88-21.21Z"/>
  <path class="st3" d="M873.96,531.13c20.24-4.16,22.45,23.26,5.21,25.98-13.83,2.18-21.99-22.53-5.21-25.98Z"/>
  <path class="st3" d="M800.11,457.3c18.28-5.27,23.39,23.04,7.25,25.99-17.17,3.13-22.18-21.68-7.25-25.99Z"/>
  <path class="st3" d="M873.96,494.22c20.24-4.16,22.45,23.26,5.21,25.98-13.83,2.18-21.99-22.53-5.21-25.98Z"/>
  <path class="st3" d="M837.02,457.3c18.28-5.27,23.39,23.04,7.25,25.99-17.17,3.13-22.18-21.68-7.25-25.99Z"/>
  <path class="st3" d="M428.06,459.63c10.89-8.85,28.11,3.68,20.05,16.94-10.73,17.66-35.59-4.31-20.05-16.94Z"/>
  <path class="st5" d="M504.78,568.05c16.82-5.11,26.73,15.6,11.4,23.8-17.28,9.24-26.15-19.32-11.4-23.8Z"/>
  <path class="st3" d="M543.82,383.45c17.17-3.13,22.18,21.68,7.25,25.99-18.28,5.27-23.39-23.04-7.25-25.99Z"/>
  <path class="st3" d="M469.99,531.13c26.75-5.51,17.05,36.79-3.45,23.1-10.09-6.73-7.48-20.85,3.45-23.1Z"/>
  <path class="st3" d="M433.08,494.22c20.24-4.16,22.45,23.26,5.21,25.98-13.83,2.18-21.99-22.53-5.21-25.98Z"/>
  <path class="st5" d="M357.12,201.03c25.46-7.83,25.47,31.63,0,23.8-9.59-2.95-9.62-20.84,0-23.8Z"/>
  <path class="st5" d="M504.8,201.07c24.97-7.36,24.99,31.08,0,23.73-10.34-3.04-10.41-20.66,0-23.73Z"/>
  <path class="st3" d="M543.81,457.32c11.93-2.51,21.85,11.34,12.88,21.21-17.09,18.79-33.89-16.79-12.88-21.21Z"/>
  <path class="st3" d="M839.11,420.36c17.68-3.18,20.57,24.69,3.39,26.34-16.25,1.56-20.46-23.26-3.39-26.34Z"/>
  <path class="st3" d="M506.91,420.36c17.17-3.13,22.18,21.68,7.25,25.99-18.28,5.27-23.39-23.04-7.25-25.99Z"/>
  <path class="st3" d="M802.2,420.36c17.68-3.18,20.57,24.69,3.39,26.34-16.25,1.56-20.46-23.26-3.39-26.34Z"/>
  <path class="st4" d="M472.01,309.63c14.64-2.3,22.13,24.46,3.45,26.32-19.08,1.9-19.8-23.74-3.45-26.32Z"/>
  <path class="st5" d="M580.72,494.23c19.1-3.95,21.69,25.08,3.48,26.26-14.83.96-19.41-22.97-3.48-26.26Z"/>
  <path class="st3" d="M472.01,346.54c14.64-2.3,22.13,24.46,3.45,26.32-19.08,1.9-19.8-23.74-3.45-26.32Z"/>
  <path class="st3" d="M802.2,383.45c17.68-3.18,20.57,24.69,3.39,26.34-16.25,1.56-20.46-23.26-3.39-26.34Z"/>
  <path class="st3" d="M947.78,531.13c26.75-5.51,17.05,36.79-3.45,23.1-10.09-6.73-7.48-20.85,3.45-23.1Z"/>
  <path class="st4" d="M837.02,568.1c21.24-4.77,21.58,23.95,5.42,25.72-14.66,1.61-21.92-22.02-5.42-25.72Z"/>
  <path class="st4" d="M580.74,824.33c21.34-4.06,20.89,32.5-1.61,25.43-12.8-4.02-9.96-23.23,1.61-25.43Z"/>
  <path class="st3" d="M543.82,861.24c17.17-3.13,22.18,21.68,7.25,25.99-18.28,5.27-23.39-23.04-7.25-25.99Z"/>
  <path class="st3" d="M543.81,898.2c11.93-2.51,21.85,11.34,12.88,21.21-17.09,18.79-33.89-16.79-12.88-21.21Z"/>
  <path class="st3" d="M543.81,935.11c11.93-2.51,21.85,11.34,12.88,21.21-17.09,18.79-33.89-16.79-12.88-21.21Z"/>
  <path class="st4" d="M580.72,457.32c19.04-4,21.73,25.08,3.48,26.26-15.49,1-18.22-23.17-3.48-26.26Z"/>
  <path class="st4" d="M763.2,494.21c18.2-5.25,23.47,22.9,7.25,25.99-16.79,3.19-21.9-21.76-7.25-25.99Z"/>
  <path class="st4" d="M580.74,383.45c16.79-3.19,21.9,21.76,7.25,25.99-18.2,5.25-23.47-22.9-7.25-25.99Z"/>
  <path class="st5" d="M469.98,457.32c11.83-2.48,22.42,10.58,12.89,21.21-16.08,17.91-34.05-16.76-12.89-21.21Z"/>
  <path class="st4" d="M357.12,237.94c24.14-7.42,26.33,29.24,2.11,23.79-12.66-2.85-11.82-20.8-2.11-23.79Z"/>
  <path class="st5" d="M399.79,273.31c16.63.04,17.01,23.65,4,25.77-22.18,3.62-21.68-25.81-4-25.77Z"/>
  <path class="st4" d="M580.74,420.36c11.32-2.06,22.06,11.14,12.86,21.25-17.37,19.1-33.67-17.47-12.86-21.25Z"/>
  <path class="st4" d="M510.52,273.31c17.68-.04,18.18,29.39-4,25.77-13.02-2.13-12.64-25.73,4-25.77Z"/>
  <path class="st4" d="M654.56,346.54c18.07-3.28,20.3,23.83,5.55,26.35-19.01,3.24-20.06-23.71-5.55-26.35Z"/>
  <path class="st4" d="M763.2,457.3c18.2-5.25,23.47,22.9,7.25,25.99-16.79,3.19-21.9-21.76-7.25-25.99Z"/>
  <path class="st3" d="M543.82,420.36c11.32-2.06,22.06,11.14,12.86,21.25-17.37,19.1-33.67-17.47-12.86-21.25Z"/>
  <path class="st4" d="M654.54,494.23c18.7-3.86,20.79,25.16,3.47,26.27-15.88,1.02-19.07-23.05-3.47-26.27Z"/>
  <path class="st4" d="M435.11,309.64c14.71-2.25,22.08,24.45,3.44,26.31-19.67,1.96-18.63-23.98-3.44-26.31Z"/>
  <path class="st3" d="M837.06,531.14c20.28-4.14,22.41,23.26,5.2,25.97-14.35,2.26-21-22.74-5.2-25.97Z"/>
  <path class="st4" d="M508.93,309.63c15.05-2.37,21.21,24.59,3.44,26.31-19.14,1.84-19.74-23.74-3.44-26.31Z"/>
  <path class="st5" d="M556.13,333.38c-9.99,9.44-28.51-3.24-20.11-17.04,10.7-17.59,34.26,3.67,20.11,17.04Z"/>
  <path class="st5" d="M728.38,383.45c17.13-3.04,21.67,24.55,3.4,26.34-16.18,1.59-19.41-23.5-3.4-26.34Z"/>
  <path class="st4" d="M765.29,383.45c17.72-3.14,20.54,24.69,3.39,26.33-16.62,1.59-19.55-23.47-3.39-26.33Z"/>
  <path class="st4" d="M765.29,420.36c23.79-4.28,15.99,38.72-5.57,23.2-10.27-7.39-5.27-21.25,5.57-23.2Z"/>
  <path class="st4" d="M691.47,346.54c17.21-3.08,20.51,23.8,5.55,26.35-18.36,3.13-21.24-23.55-5.55-26.35Z"/>
  <path class="st4" d="M573.6,552.81c-8.88-9.41,2.02-29.16,17.04-20.11,16.84,10.15-3.37,34.59-17.04,20.11Z"/>
  <path class="st5" d="M467.87,127.17c17.01-5.17,26.64,15.92,11.37,23.85-16.88,8.77-26.42-19.28-11.37-23.85Z"/>
  <path class="st5" d="M433.04,420.4c17.11-5.11,23.85,23.68,5.59,26.37-15,2.21-21.67-21.57-5.59-26.37Z"/>
  <path class="st4" d="M582.82,346.62c16.8-1.41,18.41,24.21,3.46,26.31-18.79,2.64-21.23-24.82-3.46-26.31Z"/>
  <path class="st4" d="M765.23,346.59c17.49-2.51,21.5,24.52,3.46,26.29-16.94,1.66-19.19-24.03-3.46-26.29Z"/>
  <path class="st5" d="M617.65,420.36c18.57-3.29,21.6,25.17,3.45,26.32-16.25,1.03-18.68-23.62-3.45-26.32Z"/>
  <path class="st4" d="M556.13,570.27c14.48,13.67-9.96,33.88-20.11,17.04-9.05-15.02,10.7-25.92,20.11-17.04Z"/>
  <path class="st1" d="M593.04,570.26c12.97,12.29-7.16,32.42-19.45,19.45-11.24-11.86,7.59-30.69,19.45-19.45Z"/>
  <path class="st5" d="M873.93,457.3c18.21-5.31,22.9,21.73,7.29,26.01-14.74,4.04-24.5-20.99-7.29-26.01Z"/>
  <path class="st4" d="M873.96,568.04c20.7-4.27,21.89,23.97,5.39,25.78-14.97,1.64-21.62-22.44-5.39-25.78Z"/>
  <path class="st4" d="M580.72,972.02c18.46-3.82,21.58,23.57,5.23,25.91-16.62,2.38-21.58-22.54-5.23-25.91Z"/>
  <path class="st4" d="M834.91,641.91c18.96-5.82,25.13,17.91,12.9,23.12-20.78,8.85-26.34-18.99-12.9-23.12Z"/>
  <path class="st4" d="M834.91,678.82c25.61-7.87,24.82,31.41,0,23.8-9.58-2.94-9.63-20.84,0-23.8Z"/>
  <path class="st4" d="M803.76,714.19c15.85.04,18.38,23.34,3.99,25.76-21.5,3.63-21.73-25.81-3.99-25.76Z"/>
  <path class="st3" d="M545.91,824.41c17.28-1.47,18.52,24.19,3.46,26.31-17.85,2.52-21.53-24.78-3.46-26.31Z"/>
  <path class="st4" d="M359.23,164.13c19.69-4.44,22.1,20,9.37,23.75-20.41,6.02-25.49-20.12-9.37-23.75Z"/>
  <path class="st4" d="M654.56,824.33c20.95-3.74,20.13,32.26-1.61,25.43-12.43-3.91-11.07-23.17,1.61-25.43Z"/>
  <path class="st4" d="M691.47,824.33c18.06-3.22,21.39,24.62,3.4,26.35-16.21,1.56-18.59-23.64-3.4-26.35Z"/>
  <path class="st3" d="M960.03,496.54c14.82,12.05-9.09,34.96-20.04,16.94-8.06-13.26,9.16-25.8,20.04-16.94Z"/>
  <path class="st4" d="M580.74,861.24c16.79-3.19,21.9,21.76,7.25,25.99-18.2,5.25-23.47-22.9-7.25-25.99Z"/>
  <path class="st3" d="M482.24,407.11c-10.89,8.86-28.1-3.69-20.04-16.94,10.95-18.01,34.86,4.89,20.04,16.94Z"/>
  <path class="st3" d="M499.87,387.82c12.05-14.82,34.96,9.09,16.94,20.04-13.26,8.06-25.8-9.16-16.94-20.04Z"/>
  <path class="st4" d="M580.72,935.11c19.04-4,21.73,25.08,3.48,26.26-15.49,1-18.22-23.17-3.48-26.26Z"/>
  <path class="st5" d="M654.56,420.36c18.44-3.29,20.94,25.19,3.46,26.32-16.22,1.04-18.71-23.6-3.46-26.32Z"/>
  <path class="st5" d="M691.47,420.36c18.44-3.29,20.94,25.19,3.46,26.32-16.22,1.04-18.71-23.6-3.46-26.32Z"/>
  <path class="st5" d="M728.38,420.36c17.53-3.11,21.2,25.17,3.46,26.32-16.29,1.05-19.46-23.47-3.46-26.32Z"/>
  <path class="st4" d="M617.65,457.27c18.54-3.29,21.62,25.14,3.46,26.31-15.19.98-19.05-23.55-3.46-26.31Z"/>
  <path class="st4" d="M654.56,457.27c18.44-3.29,20.94,25.19,3.46,26.32-16.22,1.04-18.71-23.6-3.46-26.32Z"/>
  <path class="st4" d="M691.47,457.27c18.44-3.29,20.94,25.19,3.46,26.32-16.22,1.04-18.71-23.6-3.46-26.32Z"/>
  <path class="st4" d="M615.54,531.19c18.58-5.53,23.63,21.38,8.82,25.41-17.57,4.78-22.46-21.35-8.82-25.41Z"/>
  <path class="st4" d="M726.28,531.19c21.92-6.52,22.9,28.89,2.04,25.87-13.05-1.89-13.04-22.6-2.04-25.87Z"/>
  <path class="st4" d="M777.59,552.81c-13.62,14.42-33.89-9.82-17.03-20.12,13.75-8.4,26.48,10.11,17.03,20.12Z"/>
  <path class="st5" d="M795.05,533.37c9.21-8.72,28.64,3.01,20.12,17.03-10.69,17.58-34.26-3.64-20.12-17.03Z"/>
  <path class="st4" d="M139.84,53.35c18.18-3.76,21.3,23.61,5.23,25.92s-21.58-22.53-5.23-25.92Z"/>
  <path class="st4" d="M728.38,457.27c19.05-3.37,19.76,25.31,3.45,26.31s-19.4-23.48-3.45-26.31Z"/>
  <path class="st1" d="M280.35,129.38c9.36-8.87,29.16,2.01,20.11,17.04-10.39,17.25-33.91-3.97-20.11-17.04Z"/>
  <path class="st3" d="M814.49,515.9c-13.39,14.15-34.6-9.43-17.03-20.12,14.02-8.53,25.75,10.9,17.03,20.12Z"/>
  <path class="st1" d="M758.14,570.26c9.36-8.87,29.16,2.01,20.11,17.04-10.39,17.25-33.91-3.97-20.11-17.04Z"/>
  <path class="st4" d="M795.05,570.27c10-9.45,28.52,3.28,20.12,17.03-10.29,16.86-34.53-3.42-20.12-17.03Z"/>
  <path class="st4" d="M467.85,164.12c24.95-7.66,24.96,31.46,0,23.8-9.58-2.94-9.62-20.85,0-23.8Z"/>
  <path class="st4" d="M504.78,164.08c24.1-7.32,25.57,31.34.02,23.8-10.89-3.21-9.09-21.04-.02-23.8Z"/>
  <path class="st4" d="M910.87,568.04c13.82-2.84,22.54,11.5,12.93,21.26-16.33,16.58-33.68-16.99-12.93-21.26Z"/>
  <path class="st4" d="M726.3,494.22c18.94-5.43,23.35,22.89,7.24,25.98-17.39,3.33-20.05-22.31-7.24-25.98Z"/>
  <path class="st4" d="M800.12,605.02c19.74-4.4,22.06,20,9.36,23.74-20.92,6.17-24.5-20.37-9.36-23.74Z"/>
  <path class="st4" d="M837.02,605.01c19-4.28,22.07,19.99,9.37,23.75-20.4,6.03-25.5-20.12-9.37-23.75Z"/>
  <path class="st4" d="M573.59,1030.59c-8.87-9.36,2.01-29.16,17.04-20.11,17.25,10.39-3.97,33.91-17.04,20.11Z"/>
  <path class="st4" d="M689.39,494.22c18.94-5.43,23.35,22.89,7.24,25.98-17.39,3.33-20.05-22.31-7.24-25.98Z"/>
  <path class="st4" d="M871.82,641.91c24.95-7.66,24.96,31.46,0,23.8-9.58-2.94-9.62-20.85,0-23.8Z"/>
  <path class="st5" d="M430.94,237.94c24.95-7.66,24.96,31.46,0,23.8-9.58-2.94-9.62-20.85,0-23.8Z"/>
  <path class="st4" d="M871.82,678.82c24.95-7.66,24.96,31.46,0,23.8-9.58-2.94-9.62-20.85,0-23.8Z"/>
  <path class="st4" d="M556.13,296.47c-9.66,9.12-29.42-2.75-20.12-17.04,10.57-16.26,34.61,3.36,20.12,17.04Z"/>
  <path class="st4" d="M556.13,774.26c-10,9.45-28.52-3.28-20.12-17.03,10.29-16.86,34.53,3.42,20.12,17.03Z"/>
  <path class="st1" d="M573.59,754.81c13.07-13.8,34.29,9.71,17.04,20.11-15.03,9.06-25.91-10.74-17.04-20.11Z"/>
  <path class="st5" d="M536.69,791.72c13.39-14.15,34.6,9.43,17.03,20.12-14.02,8.53-25.75-10.9-17.03-20.12Z"/>
  <path class="st4" d="M573.6,791.72c13.62-14.42,33.89,9.82,17.03,20.12-13.75,8.4-26.48-10.11-17.03-20.12Z"/>
  <path class="st4" d="M541.73,605c23.8-6.98,25.35,31.23-.02,23.76-10.38-3.05-10.37-20.72.02-23.76Z"/>
  <path class="st4" d="M691.41,787.47c17.54-2.54,20.43,23.77,5.61,26.3-18.7,3.19-20.87-24.09-5.61-26.3Z"/>
  <path class="st4" d="M728.32,787.47c17.54-2.54,20.43,23.77,5.61,26.3-18.7,3.19-20.87-24.09-5.61-26.3Z"/>
  <path class="st4" d="M777.59,791.72c9.45,10-3.28,28.52-17.03,20.12-16.86-10.29,3.42-34.53,17.03-20.12Z"/>
  <path class="st3" d="M536.69,515.9c-8.72-9.21,3.01-28.64,17.03-20.12,17.58,10.69-3.64,34.26-17.03,20.12Z"/>
  <path class="st4" d="M573.59,313.93c13.07-13.8,34.29,9.71,17.04,20.11-15.03,9.06-25.91-10.74-17.04-20.11Z"/>
  <path class="st4" d="M617.65,824.33c20.74-3.97,20.28,32.31-1.61,25.43-12.79-4.02-9.96-23.21,1.61-25.43Z"/>
  <path class="st4" d="M617.63,494.23c18.68-3.86,20.81,25.13,3.48,26.27-14.81.97-19.43-22.97-3.48-26.27Z"/>
  <path class="st3" d="M519.22,370.28c-9.21,8.72-28.64-3.01-20.12-17.03,10.69-17.58,34.26,3.64,20.12,17.03Z"/>
  <path class="st3" d="M536.69,350.84c13.39-14.15,34.6,9.43,17.03,20.12-14.02,8.53-25.75-10.9-17.03-20.12Z"/>
  <path class="st4" d="M617.65,383.45c20.74-3.97,20.28,32.31-1.61,25.43-12.79-4.02-9.96-23.21,1.61-25.43Z"/>
  <path class="st4" d="M617.65,861.24c18.34-3.49,21.77,25.16,3.45,26.32-16.83,1.06-17.55-23.64-3.45-26.32Z"/>
  <path class="st4" d="M654.56,383.45c18.44-3.29,20.94,25.19,3.46,26.32-16.22,1.04-18.71-23.6-3.46-26.32Z"/>
  <path class="st4" d="M580.74,898.15c18.87-3.43,21.83,25.12,3.46,26.31-15.85,1.03-17.86-23.69-3.46-26.31Z"/>
  <path class="st4" d="M691.47,383.45c18.44-3.29,20.94,25.19,3.46,26.32-16.22,1.04-18.71-23.6-3.46-26.32Z"/>
  <path class="st3" d="M519.22,533.37c14.15,13.39-9.43,34.6-20.12,17.03-8.53-14.02,10.9-25.75,20.12-17.03Z"/>
  <path class="st3" d="M536.69,993.69c-8.72-9.21,3.01-28.64,17.03-20.12,17.58,10.69-3.64,34.26-17.03,20.12Z"/>
  <path class="st4" d="M619.73,787.49c16.95-1.42,17.74,25.51,1.52,26.48-17.37,1.04-18.38-25.07-1.52-26.48Z"/>
  <path class="st5" d="M248.49,90.31c21.66-6.45,23.09,28.69,2.53,25.37-14.62-2.35-12.96-22.27-2.53-25.37Z"/>
  <path class="st4" d="M174.66,90.31c20.39-6.07,24.36,26.62,3.98,25.62-14.61-.72-15.46-22.2-3.98-25.62Z"/>
  <path class="st4" d="M541.71,201.06c23.52-6.93,24.77,28.07,1.73,24.19-12-2.02-12.75-20.94-1.73-24.19Z"/>
  <path class="st1" d="M767.21,750.71c14.43-.63,19.34,25.27,1.68,26.35-17.81,1.09-19.76-25.57-1.68-26.35Z"/>
  <path class="st4" d="M541.73,164.12c23.79-6.98,24.84,31.07-.02,23.77-10.38-3.05-10.37-20.72.02-23.77Z"/>
  <path class="st4" d="M693.33,309.93c16.8-.94,17.96,25.29,1.74,26.25-16.92,1.01-19.33-25.27-1.74-26.25Z"/>
  <path class="st4" d="M656.44,309.93c17.99-.88,17.4,25.31,1.72,26.25-17.57,1.05-18.08-25.46-1.72-26.25Z"/>
  <path class="st4" d="M656.44,787.72c17.99-.88,17.4,25.31,1.72,26.25-17.57,1.05-18.08-25.46-1.72-26.25Z"/>
  <path class="st1" d="M593.04,296.47c-9.62,9.11-29.42-2.73-20.12-17.05,10.84-16.67,33.91,3.98,20.12,17.05Z"/>
  <path class="st4" d="M396.14,164.13c19.72-4.44,20.86,20.27,9.4,23.79-20.12,6.17-25.74-20.11-9.4-23.79Z"/>
  <path class="st5" d="M837.02,494.21c18.58-5.35,23.66,23.09,5.24,25.99-14.7,2.31-20.06-21.72-5.24-25.99Z"/>
  <path class="st4" d="M619.73,346.61c21.03-1.77,15.15,36.38-6.44,23.95-10.35-5.96-6.09-22.9,6.44-23.95Z"/>
  <path class="st5" d="M543.81,531.14c11.39-2.39,21.06,10.14,13.81,20.08-14.58,19.99-36.45-15.33-13.81-20.08Z"/>
  <path class="st4" d="M433.08,127.16c20.21-4.17,22.26,23.19,4.92,25.27-15.14,1.81-20.68-22.02-4.92-25.27Z"/>
  <path class="st4" d="M436.7,273.32c16.18,0,18.51,25.84,0,25.84s-16.18-25.84,0-25.84Z"/>
  <path class="st4" d="M652.45,531.19c20.39-6.07,24.36,26.62,3.98,25.62-14.61-.72-15.46-22.2-3.98-25.62Z"/>
  <path class="st4" d="M873.93,605.01c19.72-4.44,20.86,20.27,9.4,23.79-20.12,6.17-25.74-20.11-9.4-23.79Z"/>
  <path class="st5" d="M908.75,604.96c24.32-7.39,25.29,31.6-.02,23.84-9.62-2.95-9.58-20.92.02-23.84Z"/>
  <path class="st4" d="M689.36,531.19c21.66-6.45,23.09,28.69,2.53,25.37-14.62-2.35-12.96-22.27-2.53-25.37Z"/>
  <path class="st4" d="M800.12,641.93c24.3-5.44,21.91,31.26-2.13,23.78-8.82-2.74-9.97-21.08,2.13-23.78Z"/>
  <path class="st4" d="M394.03,237.94c23.72-7.28,25.69,29.1,2.11,23.79-12.66-2.85-11.82-20.81-2.11-23.79Z"/>
  <path class="st4" d="M320.2,237.93c24.02-7.48,26.45,29.22,2.13,23.78-12.18-2.72-10.87-21.06-2.13-23.78Z"/>
  <path class="st4" d="M797.99,678.81c24.02-7.48,26.45,29.22,2.13,23.78-12.18-2.72-10.87-21.06-2.13-23.78Z"/>
  <path class="st5" d="M506.9,494.23c11.39-2.39,21.06,10.14,13.81,20.08-14.58,19.99-36.45-15.33-13.81-20.08Z"/>
  <path class="st1" d="M132.71,148.83c-9.11-9.62,2.73-29.42,17.05-20.12,16.67,10.84-3.98,33.91-17.05,20.12Z"/>
  <path class="st1" d="M740.68,754.81c12.3,12.97-10.81,32.51-20.1,17.03-9.78-16.31,10.19-27.49,20.1-17.03Z"/>
  <path class="st1" d="M758.14,607.17c12.97-12.3,32.51,10.81,17.03,20.1-16.31,9.78-27.49-10.19-17.03-20.1Z"/>
  <path class="st1" d="M169.62,148.83c-12.3-12.97,10.81-32.51,20.1-17.03,9.78,16.31-10.19,27.49-20.1,17.03Z"/>
  <path class="st1" d="M262.89,148.83c-9.91,10.45-29.87-.73-20.1-17.03s32.39,4.06,20.1,17.03Z"/>
  <path class="st1" d="M280.35,166.3c12.97-12.3,32.51,10.81,17.03,20.1-16.31,9.78-27.49-10.19-17.03-20.1Z"/>
  <path class="st1" d="M593.04,166.3c10.45,9.91-.73,29.87-17.03,20.1-15.48-9.28,4.06-32.39,17.03-20.1Z"/>
  <path class="st4" d="M322.33,201.05c24.18-5.41,22,31.34-1.62,23.27-10.4-3.55-9.84-20.71,1.62-23.27Z"/>
  <path class="st1" d="M763.21,641.93c24.18-5.41,22,31.34-1.62,23.27-10.4-3.55-9.84-20.71,1.62-23.27Z"/>
  <path class="st1" d="M610.5,589.71c-12.3-12.97,10.81-32.51,20.1-17.03,9.78,16.31-10.19,27.49-20.1,17.03Z"/>
  <path class="st1" d="M740.68,589.71c-9.91,10.45-29.87-.73-20.1-17.03,9.28-15.48,32.39,4.06,20.1,17.03Z"/>
  <path class="st1" d="M578.64,201.03c22.79-6.69,25.21,28.19,1.71,24.22-12.04-2.03-12.71-20.99-1.71-24.22Z"/>
  <path class="st1" d="M763.21,678.84c24.18-5.41,22,31.34-1.62,23.27-10.4-3.55-9.84-20.71,1.62-23.27Z"/>
  <path class="st1" d="M280.35,259.56c-10.45-9.91.73-29.87,17.03-20.1,15.48,9.28-4.06,32.39-17.03,20.1Z"/>
  <path class="st1" d="M610.5,277.02c9.91-10.45,29.87.73,20.1,17.03-9.28,15.48-32.39-4.06-20.1-17.03Z"/>
  <path class="st4" d="M610.5,313.93c9.91-10.45,29.87.73,20.1,17.03-9.28,15.48-32.39-4.06-20.1-17.03Z"/>
  <path class="st4" d="M146.54,89.89c6.31-2.09,8.37-.72,6.15,4.1,6.82,8.4,1.69,21.69-9.58,22.03-18.94.58-17.06-30.95,3.43-26.13Z"/>
  <path class="st1" d="M593.04,737.35c-12.97,12.3-32.51-10.81-17.03-20.1,16.31-9.78,27.49,10.19,17.03,20.1Z"/>
  <path class="st1" d="M758.14,737.35c-10.45-9.91.73-29.87,17.03-20.1,15.48,9.28-4.06,32.39-17.03,20.1Z"/>
  <path class="st4" d="M211.57,90.31c21.69-6.45,23.06,28.72,2.53,25.37-13.39-2.18-13.5-22.11-2.53-25.37Z"/>
  <path class="st1" d="M593.04,607.17c10.45,9.91-.73,29.87-17.03,20.1s4.06-32.39,17.03-20.1Z"/>
  <path class="st1" d="M610.5,754.81c9.91-10.45,29.87.73,20.1,17.03-9.28,15.48-32.39-4.06-20.1-17.03Z"/>
  <path class="st1" d="M656.43,750.82c16.87-.87,17.89,25.28,1.73,26.24-17.53,1.05-18.13-25.39-1.73-26.24Z"/>
  <path class="st1" d="M703.77,754.81c12.3,12.97-10.81,32.51-20.1,17.03-9.78-16.31,10.19-27.49,20.1-17.03Z"/>
  <path class="st1" d="M703.77,589.71c-10.42,10.99-29.23-1.97-20.09-17.04,9.39-15.48,32.34,4.11,20.09,17.04Z"/>
  <path class="st1" d="M647.41,277.02c10.42-10.99,29.23,1.97,20.09,17.04-9.39,15.48-32.34-4.11-20.09-17.04Z"/>
  <path class="st1" d="M593.04,644.09c10.99,10.42-1.97,29.23-17.04,20.09-15.48-9.39,4.11-32.34,17.04-20.09Z"/>
  <path class="st1" d="M593.04,700.44c-12.93,12.25-32.52-10.7-17.04-20.09,15.07-9.13,28.03,9.67,17.04,20.09Z"/>
  <path class="st1" d="M629.99,607.13c12.28,12.26-7.27,31.82-19.53,19.53-11.47-11.5,8.04-31,19.53-19.53Z"/>
  <path class="st1" d="M740.72,717.86c11.47,11.5-8.04,31-19.53,19.53-12.28-12.26,7.27-31.82,19.53-19.53Z"/>
  <path class="st1" d="M647.41,589.71c-12.25-12.93,10.7-32.52,20.09-17.04,9.13,15.07-9.67,28.03-20.09,17.04Z"/>
  <path class="st0" d="M280.35,222.65c-10.61-10.07,1.81-29.3,17.04-20.09,15.49,9.37-4.12,32.36-17.04,20.09Z"/>
  <path class="st0" d="M225.98,148.84c-10.07,10.61-29.3-1.81-20.09-17.04,9.37-15.49,32.36,4.12,20.09,17.04Z"/>
  <path class="st1" d="M721.19,607.13c12.3-12.29,32.92,10.64,17.08,20.14-17.41,10.44-25.78-11.44-17.08-20.14Z"/>
  <path class="st1" d="M610.46,717.86c8.69-8.71,30.58-.33,20.14,17.08-9.5,15.84-32.43-4.77-20.14-17.08Z"/>
  <path class="st1" d="M666.9,644.04c11.94,11.92-7.6,31.47-19.53,19.53-11.47-11.48,8.04-31,19.53-19.53Z"/>
  <path class="st1" d="M226.02,203.17c11.47,11.48-8.04,31-19.53,19.53-11.94-11.92,7.6-31.47,19.53-19.53Z"/>
  <path class="st1" d="M703.81,680.96c11.47,11.48-8.04,31-19.53,19.53-11.94-11.92,7.6-31.47,19.53-19.53Z"/>
  <path class="st0" d="M629.99,203.16c8.67,8.66-.57,30.11-17.07,20.13-15.85-9.58,4.82-32.39,17.07-20.13Z"/>
  <path class="st0" d="M629.99,644.04c8.67,8.66-.57,30.11-17.07,20.13s4.82-32.39,17.07-20.13Z"/>
  <path class="st0" d="M721.19,663.57c-8.67-8.66.57-30.11,17.07-20.13,15.85,9.58-4.82,32.39-17.07,20.13Z"/>
  <path class="st0" d="M243.4,185.78c-8.67-8.66.57-30.11,17.07-20.13s-4.82,32.39-17.07,20.13Z"/>
  <path class="st0" d="M226.02,185.78c-8.66,8.67-30.11-.57-20.13-17.07s32.39,4.82,20.13,17.07Z"/>
  <path class="st0" d="M629.99,680.95c8.67,8.66-.57,30.11-17.07,20.13-15.85-9.58,4.82-32.39,17.07-20.13Z"/>
  <path class="st0" d="M666.9,680.96c12.25,12.26-10.55,32.92-20.13,17.07-9.97-16.5,11.47-25.74,20.13-17.07Z"/>
  <path class="st0" d="M721.19,700.48c-8.67-8.66.57-30.11,17.07-20.13s-4.82,32.39-17.07,20.13Z"/>
  <path class="st0" d="M666.9,626.66c-8.66,8.67-30.11-.57-20.13-17.07,9.58-15.85,32.39,4.82,20.13,17.07Z"/>
  <path class="st0" d="M703.81,626.66c-8.66,8.67-30.11-.57-20.13-17.07,9.58-15.85,32.39,4.82,20.13,17.07Z"/>
  <path class="st0" d="M243.4,222.7c-8.67-8.66.57-30.11,17.07-20.13s-4.82,32.39-17.07,20.13Z"/>
  <path class="st0" d="M666.9,717.87c12.25,12.26-10.55,32.92-20.13,17.07s11.47-25.74,20.13-17.07Z"/>
  <path class="st0" d="M703.81,717.87c12.25,12.26-10.55,32.92-20.13,17.07-9.97-16.5,11.47-25.74,20.13-17.07Z"/>
  <path class="st0" d="M684.28,663.57c-8.67-8.66.57-30.11,17.07-20.13,15.85,9.58-4.82,32.39-17.07,20.13Z"/>
  <path class="st2" d="M146.54,89.89c6.67-2.71,5.41-6.26,14.34-2.02l-8.19,6.13c-.23-.29-5.79-4.02-6.15-4.1Z"/>
</svg>