<?xml version="1.0" encoding="UTF-8"?>
<svg id="Capa_1" xmlns="http://www.w3.org/2000/svg" version="1.1" viewBox="0 0 834.8 224.1">
  <!-- Generator: Adobe Illustrator 29.1.0, SVG Export Plug-In . SVG Version: 2.1.0 Build 142)  -->
  <defs>
    <style>
      .st0 {
        fill: #828282;
      }
    </style>
  </defs>
  <path class="st0" d="M93.1,109.6h13v-14.8s-45.8-8.7-63.9,2c0,0-8.3,4.9-8.3,15.4,0,0-1.7,10.5,15.9,14.8,0,0,3.1.6,6.8.7l21.6,1.9s5.5.5,5.7,3.5c0,0,0,2.8-4.2,3.8,0,0-11.2,2-24,0,0,0-6.5-1.1-7.3-8.1h-13.1v15.7s23.1,8.7,50.7,3.8c0,0,20.7-2.4,24.4-15.4,0,0,3-10.6-4-16.5,0,0-3.3-3.4-10.5-4.2,0,0-11.4-1.8-28.6-2.4,0,0-4.3.3-4.8-2.9,0,0,1-3.3,3.2-3.5,0,0,3.6-1.4,10.8-1.4,0,0,16.2-.8,16.5,7.7Z"/>
  <path class="st0" d="M109.3,92.4h36.2v33.6s2,8.4,11.1,7.8c0,0,16.6,1,18.2-15.2v-12.7s0-2.3-2.4-2.3h-7.3v-11.2h34.5v39.4s.6,7.1,9.6,6.5v11.4h-34v-8.2s-14.4,9.9-29.7,9.5c0,0-20.7,1.2-26.3-18.6v-22.4s1.1-5.1-4.6-6.5h-5.4v-11.1Z"/>
  <path class="st0" d="M278.8,92.4c16.9.8,17,17.4,17,17.4-.8,18-17.8,18.1-17.8,18.1h-30.5v6.9c1.4,2.6,7.6,3.4,7.6,3.4h2.3v11.4h-45.9v-11.1c9.7.5,11.7-8.9,11.7-8.9v-19.7c0-4.8-6.5-6.5-6.5-6.5h-5.2v-11h67.3ZM247.3,103.1v13.7h16.4s5.9-.2,6.2-6.8c0,0,.7-5.2-6.2-6.8h-16.4Z"/>
  <path class="st0" d="M295.5,92.4v11.5h6.9s4,0,4.2,6.1v23.1s-.2,5-5.6,5.4h-5.6v11.1h80.2v-21h-11.3v4.4s.2,4.6-5.4,5.7h-27.8v-11.6h31.6v-11.4h-31.5v-11.6h27s5.4,0,6.1,5.8v3.7h11.3v-21.1h-80.2Z"/>
  <path class="st0" d="M431.9,103.1c6.9,1.6,6.2,6.8,6.2,6.8-.3,6.7-6.2,6.8-6.2,6.8h-16.4v-13.7h16.4ZM379.2,92.4v11h5.3s6.2,1.3,6.5,6.2v19.7s-.9,9.2-11.8,9.6v10.7h40.9v-11.4s-4.6.9-6.5-4v-6.1s2.9-.7,11.8,8.9l12.8,12.7h26.1v-11.3s-5.2.6-9-3l-6.7-7.2s17.5-.2,18.1-18.3c0,0,.3-15.6-16.8-17.4h-70.7Z"/>
  <path class="st0" d="M466.1,92.4v11.6h5.4s4.5-.9,4.8,4.6v25.4s-.9,4.8-5.1,4.5h-5.1v11.1h31.2v-9.2h-2.1s-4-.6-4.6-5.2v-18.1l17,32.5h13.9l17-32.1v17.5s1,4.4-3.8,5h-4.5v9.5h42.7v-11.1h-6.8s-4.1.5-4.7-3.8v-25s.2-4.3,4.2-4.2h5.7v-13.1h-39.6l-12.3,26.3-12.1-26.3h-41.4Z"/>
  <path class="st0" d="M635.7,92.4l22.5,39.4c5.4,8.3,10.2,6.7,10.2,6.7v11.1h-42.5v-11.1h4.6c2.3-.8,1.9-2.7,1.9-2.7-.3-2.2-2.4-2.4-2.4-2.4h-23.3c-2,0-2.2,2.5-2.2,2.5,0,2.2,2.4,2.7,2.4,2.7h4v10.9h-35.7v-9.4c6.1-.8,9.4-4.8,9.4-4.8l18.1-23.3c2.7-2.8,2.1-4.6,2.1-4.6.2-3-3.4-3.6-3.4-3.6h-6.7v-11.6h41.2ZM612.2,123.6h15.9l-7.9-11.6-7.9,11.6Z"/>
  <path class="st0" d="M671.5,92.4v11.2h5.1s3.5-.9,7.3,2.5l17.3,15.9-22.9,14.6s-1.8,2.1-3.5,1.9h-3.2v11.1h40.8v-10.9h-4.8s-4-2.5-.4-4.9l4.6-2.1,16.9,17.9h33.4v-11h-2.6s-1.9,0-3.5-1.4l-22-18.1,19.8-12.5s3.4-2.6,8.3-2.4v-11.8h-42.4v10.8h3.2s2.6.4,2.8,2.6c0,0,.3,1.4-1.3,2l-2.9,1.8-17.2-17.2h-32.7Z"/>
  <path class="st0" d="M765.7,92.4v11.1s10.4-.2,10.4,8.8v19.8s-.3,6.8-10.4,6.6v11h46.5v-10.8s-10.3.3-11.1-7.7v-19.7s0-7.6,11.1-7.6v-11.4h-46.5Z"/>
</svg>