<?xml version="1.0" encoding="UTF-8"?>
<svg id="Capa_1" xmlns="http://www.w3.org/2000/svg" version="1.1" viewBox="0 0 834.8 224.1">
  <!-- Generator: Adobe Illustrator 29.1.0, SVG Export Plug-In . SVG Version: 2.1.0 Build 142)  -->
  <defs>
    <style>
      .st0 {
        font-family: MyriadPro-Regular, 'Myriad Pro';
        font-size: 73.7px;
      }

      .st0, .st1 {
        fill: #828282;
      }
    </style>
  </defs>
  <g>
    <path class="st1" d="M242.4,8.3v16.1c-12.9,6.7-21,18.6-24.4,32.6-5,20.9-3.2,62.9,19.4,73.6,1.1.5,7.7,2.9,8.4,2.9h12.4V8.3h57v16.5c-5.9.6-9.2,3.3-9.8,9.3-2.9,31.3,2.3,67.2,0,99,.7,6.3,4.9,7.3,9.8,9.8v15.3h-3.4c-59-3.2-148.3,20-142-70.1,1.8-25.5,11.5-28.9,20.6-48.3s2.4-14.5-8.6-15V8.3h60.7,0Z"/>
    <path class="st1" d="M186.9,207.6v-29.6c0-.5-2.5-1.2-2.9-2.4s0-4,1-4h17.2c1.1,0,1.4,2.9,1,4s-2.5,1-2.9,3.1c-.7,3.9-.6,24.2,0,28.5.3,2.6,3.8,3.3,2.3,7.8h-26.6c-1.8,0-8.6-3.4-10.1-4.8-4.5-4.3-5.3-13.4-4.1-19.2s5.9-9.7,6.1-12.3-6-2-2.7-6.8c2.6-.3,16-1,17,.4,2.3,3.3-2.2,5.1-3.8,6.8-6.6,7.7-5.4,30.2,8.6,28.4h-.1Z"/>
    <path class="st1" d="M246.9,171.7v11.6c-5.9,3.5-4.4.3-6.1-2.2s-10.4-1.8-13.7-1.8c-1.9.6-1.6,7.8-.5,8.6l7.2.3c2.7-.5,2.3-4.6,7.1-3v12.7h-4.4c0-.1-1.3-2.9-1.3-2.9h-9.3v11.9h13.9c2.9,0,.9-4.8,6-3.7,3.2.7,2.3,11.3.7,11.9l-37-.6v-3.7c2.6-.7,3.3-.8,3.7-3.5.7-5.2.8-22.5.1-27.7s-1-2.6-3.8-2.6v-5.2h37.4Z"/>
    <path class="st1" d="M291.1,172.4v12h-5.2c0-2-.3-3.4-1.9-4.5h-13.1v8.2h8.5l1.3-2.9h4.4v12.6c-4.9,1.1-3.9-1.1-5.5-2.3s-6.4-.8-8.7-.4c-1.1.8-1.1,11.3,0,12.1,3.6.1,12.4,1.6,14.7-1.1,2.2-2.6-.1-3.9,6.3-3.1v12h-38.2v-4.4c1.1-.3,2.3-.3,3.1-1.1,2-2.3,0-26.1.7-30.8-.2-2-2.1-2.1-3.6-2.7v-3.6c-.1,0,37.4,0,37.4,0h-.2Z"/>
    <path class="st1" d="M310.8,180.1c-1,1.2-1.4,3.6-.2,4.7,4.1,3.9,19.4,0,22.7,11.1,5.3,17.7-20.1,23.9-32.6,15.4-1.9-1.3-6.3-4.7-4.2-7s6.6-5.7,7.1-5.7c3.2,0,3,4.4,3.8,6,2.1,4.3,15.3,3.7,13.7-2.4-1.5-5.8-23-2.1-23.9-15.2s23-19,32.7-10.9c6,5-1.3,6.7-4.5,10.4-3.4-1.2-2.8-3.5-4.1-5.5-1.9-2.9-8.1-3.4-10.3-.9h-.2Z"/>
  </g>
  <rect class="st1" x="349.9" y="8.7" width="3.7" height="206.7"/>
  <text class="st0" transform="translate(379.4 102.1)"><tspan x="0" y="0">Universidad</tspan></text>
  <text class="st0" transform="translate(379.3 172.6)"><tspan x="0" y="0">Espíritu Santo</tspan></text>
</svg>