<?xml version="1.0" encoding="UTF-8"?>
<svg id="Capa_1" xmlns="http://www.w3.org/2000/svg" version="1.1" viewBox="0 0 1080 1080">
  <!-- Generator: Adobe Illustrator 29.1.0, SVG Export Plug-In . SVG Version: 2.1.0 Build 142)  -->
  <defs>
    <style>
      .st0 {
        fill: #e7000b;
      }
    </style>
  </defs>
  <path class="st0" d="M976.61,385.95v311.5c-9.53,37.55-49.45,59.56-84.9,39.79l-149.18-85.72-.95-220.53.4-2.21c48.64-24.85,94.89-57.33,143.26-82.27,33.53-17.29,64.1-13.59,84.6,19.82l6.76,19.63Z"/>
  <g>
    <path class="st0" d="M456.84,530.35l-101-50.56c-2.24-.79-5.06-.75-7.37-.36-4.7.81-9.27,6.03-9.24,10.88l.03,100.64c2.7,11.12,10.7,12.25,20.36,8.29,31.11-12.78,61.85-33.08,92.98-46.51,9.54-4.15,12.79-15.26,4.24-22.37Z"/>
    <path class="st0" d="M691.91,361.7c-8.41-40.32-40.92-71.18-82.15-76.15l-425.08.41c-43.54,7.85-75.41,43.37-79.56,87.25v335.28c4.22,45.4,38.68,82.29,84.17,87.75l420.47-.09c52.03-8.55,81.5-46.16,84.37-97.77,6.18-111.31-3.06-225.4-2.21-336.68ZM555.88,581.86c-17.86,71.14-80.62,128.81-155.59,130.15h-2.01c-1.7-1.14-5.81-1.12-7.38,0h-5.36c-1.93-1.14-6.26-1.12-8.05,0h-2.68c-82.05-3.1-155.74-76.25-158.26-158.96v-2.68c1.14-1.7,1.12-5.81,0-7.38v-5.37c1.14-1.7,1.12-5.81,0-7.38.05-.88-.07-1.8,0-2.68,1.38-77.79,64.37-142.94,139.21-156.83,19.86-3.69,49.31-3.7,69.09.29,64.66,13.04,119.42,67.68,132.68,132.33,4.65,22.67,3.99,56.08-1.65,78.51Z"/>
  </g>
</svg>